<?xml-stylesheet type="text/css" href="../css/studentv3style.css" ?>
<svg height="682.66669pt" viewBox="-21 -21 682.66669 682.66669" width="682.66669pt" xmlns="http://www.w3.org/2000/svg"><path style="fill:#fafafa;" d="m320 234.667969c41.234375 0 74.667969-33.433594 74.667969-74.667969s-33.433594-74.667969-74.667969-74.667969-74.667969 33.433594-74.667969 74.667969c.050781 41.214844 33.453125 74.617188 74.667969 74.667969zm0-128.003907c29.453125 0 53.335938 23.882813 53.335938 53.335938s-23.882813 53.335938-53.335938 53.335938-53.335938-23.882813-53.335938-53.335938c.039063-29.4375 23.898438-53.296875 53.335938-53.335938zm0 0"/><path style="fill:#fafafa;" d="m320 170.667969h21.332031c5.894531 0 10.667969-4.777344 10.667969-10.667969s-4.773438-10.667969-10.667969-10.667969h-10.664062v-10.664062c0-5.894531-4.777344-10.667969-10.667969-10.667969s-10.667969 4.773438-10.667969 10.667969v21.332031c0 5.890625 4.777344 10.667969 10.667969 10.667969zm0 0"/><path style="fill:#fafafa;" d="m128 234.667969h-32c-11.78125 0-21.332031 9.550781-21.332031 21.332031v85.332031c0 11.785157 9.550781 21.332031 21.332031 21.332031h32c11.78125 0 21.332031-9.546874 21.332031-21.332031v-85.332031c0-11.78125-9.550781-21.332031-21.332031-21.332031zm-32 21.332031h32v42.667969h-32zm0 85.332031v-21.332031h32v21.332031zm0 0"/><path style="fill:#fafafa;" d="m224 234.667969h-32c-11.78125 0-21.332031 9.550781-21.332031 21.332031v85.332031c0 11.785157 9.550781 21.332031 21.332031 21.332031h32c11.78125 0 21.332031-9.546874 21.332031-21.332031v-85.332031c0-11.78125-9.550781-21.332031-21.332031-21.332031zm-32 21.332031h32v42.667969h-32zm0 85.332031v-21.332031h32v21.332031zm0 0"/><path style="fill:#fafafa;" d="m128 384h-32c-11.78125 0-21.332031 9.550781-21.332031 21.332031v85.335938c0 11.785156 9.550781 21.332031 21.332031 21.332031h32c11.78125 0 21.332031-9.546875 21.332031-21.332031v-85.335938c0-11.78125-9.550781-21.332031-21.332031-21.332031zm-32 21.332031h32v42.667969h-32zm0 85.335938v-21.335938h32v21.335938zm0 0"/><path style="fill:#fafafa;" d="m224 384h-32c-11.78125 0-21.332031 9.550781-21.332031 21.332031v85.335938c0 11.785156 9.550781 21.332031 21.332031 21.332031h32c11.78125 0 21.332031-9.546875 21.332031-21.332031v-85.335938c0-11.78125-9.550781-21.332031-21.332031-21.332031zm-32 21.332031h32v42.667969h-32zm0 85.335938v-21.335938h32v21.335938zm0 0"/><path style="fill:#fafafa;" d="m394.667969 309.332031v32c0 11.785157 9.550781 21.332031 21.332031 21.332031h32c11.78125 0 21.332031-9.546874 21.332031-21.332031v-85.332031c0-11.78125-9.550781-21.332031-21.332031-21.332031h-32c-11.78125 0-21.332031 9.550781-21.332031 21.332031zm21.332031 32v-21.332031h32v21.332031zm0-85.332031h32v42.667969h-32zm0 0"/><path style="fill:#fafafa;" d="m512 362.664062h32c11.78125 0 21.332031-9.546874 21.332031-21.332031v-85.332031c0-11.78125-9.550781-21.332031-21.332031-21.332031h-32c-11.78125 0-21.332031 9.550781-21.332031 21.332031v85.332031c0 11.785157 9.550781 21.332031 21.332031 21.332031zm0-21.332031v-21.332031h32v21.332031zm0-85.332031h32v42.667969h-32zm0 0"/><path style="fill:#fafafa;" d="m448 384h-32c-11.78125 0-21.332031 9.550781-21.332031 21.332031v85.335938c0 11.785156 9.550781 21.332031 21.332031 21.332031h32c11.78125 0 21.332031-9.546875 21.332031-21.332031v-85.335938c0-11.78125-9.550781-21.332031-21.332031-21.332031zm-32 21.332031h32v42.667969h-32zm0 85.335938v-21.335938h32v21.335938zm0 0"/><path style="fill:#fafafa;" d="m512 512h32c11.78125 0 21.332031-9.546875 21.332031-21.332031v-85.335938c0-11.78125-9.550781-21.332031-21.332031-21.332031h-32c-11.78125 0-21.332031 9.550781-21.332031 21.332031v85.335938c0 11.785156 9.550781 21.332031 21.332031 21.332031zm0-21.332031v-21.335938h32v21.335938zm0-85.335938h32v42.667969h-32zm0 0"/><path style="fill:#fafafa;" d="m341.332031 490.699219c0 5.894531-4.773437 10.667969-10.664062 10.667969-5.894531 0-10.667969-4.773438-10.667969-10.667969 0-5.890625 4.773438-10.664063 10.667969-10.664063 5.890625 0 10.664062 4.773438 10.664062 10.664063zm0 0"/><path style="fill:#fafafa;" d="m629.332031 578.964844v-24.296875c0-11.78125-9.550781-21.332031-21.332031-21.332031v-330.671876h7.679688c6.566406 0 12.761718-3.023437 16.800781-8.195312 4.042969-5.171875 5.480469-11.921875 3.890625-18.289062l-26.664063-106.664063c-2.34375-9.519531-10.886719-16.203125-20.691406-16.179687h-206.9375l-46.953125-47.117188c-8.46875-8.0625-21.78125-8.0625-30.25 0l-47.039062 47.117188h-108.503907v-21.335938c0-17.671875-14.328125-32-31.996093-32h-10.671876c-17.671874 0-31.996093 14.328125-31.996093 32v21.335938h-23.683594c-9.804687-.035157-18.359375 6.65625-20.691406 16.179687l-26.664063 106.664063c-1.589844 6.367187-.152344 13.117187 3.890625 18.289062 4.039063 5.171875 10.234375 8.195312 16.800781 8.195312h7.679688v330.671876c-11.78125 0-21.332031 9.550781-21.332031 21.332031v24.296875c-6.582031 3.777344-10.6445315 10.78125-10.667969 18.371094v21.332031c0 11.78125 9.550781 21.332031 21.332031 21.332031h597.335938c11.78125 0 21.332031-9.550781 21.332031-21.332031v-21.332031c-.023438-7.589844-4.085938-14.59375-10.667969-18.371094zm-40.308593-504.296875 26.664062 106.664062h-101.234375c-2.855469-.003906-5.59375-1.15625-7.59375-3.199219l-103.402344-103.464843zm-493.023438-42.667969c0-5.890625 4.777344-10.667969 10.664062-10.667969h10.671876c5.886718 0 10.664062 4.777344 10.664062 10.667969v74.664062h-32zm-71.6875 149.332031 26.671875-106.664062h23.683594v31.996093c0 11.78125 9.550781 21.335938 21.332031 21.335938h32c11.78125 0 21.332031-9.554688 21.332031-21.335938v-31.996093h87.191407l-103.359376 103.464843c-2.007812 2.046876-4.75 3.199219-7.617187 3.199219zm29.023438 21.332031h72.210937c8.519531.015626 16.695313-3.382812 22.699219-9.425781l121.542968-121.667969.078126-.105468 50.132812-50.132813 171.734375 171.925781c6.007813 6.046876 14.195313 9.433594 22.71875 9.40625h72.210937v330.671876h-213.328124v-96c0-29.460938-23.882813-53.335938-53.335938-53.335938s-53.335938 23.875-53.335938 53.335938v96h-213.328124zm234.664062 245.335938h64v85.335938h-64zm1.824219-21.335938c4.515625-12.792968 16.605469-21.347656 30.175781-21.347656s25.660156 8.554688 30.175781 21.347656zm-257.824219 128.003907h576v21.332031h-576zm-10.667969 64v-21.332031h597.335938v21.332031zm0 0"/><path style="fill:#fafafa;" d="m352 256h-64c-11.785156 0-21.335938 9.550781-21.335938 21.335938v63.996093c0 11.785157 9.550782 21.332031 21.335938 21.332031h64c11.785156 0 21.335938-9.546874 21.335938-21.332031v-63.996093c0-11.785157-9.550782-21.335938-21.335938-21.335938zm-64 21.335938h64v21.332031h-64zm0 63.996093v-21.332031h64v21.332031zm0 0"/></svg>