<svg width="164" height="315" viewBox="0 0 164 315" fill="none" xmlns="http://www.w3.org/2000/svg">
<path d="M102.202 37.5107L104.759 35.416C104.759 35.416 105.507 27.684 104.26 23.9427C103.014 20.2013 98.2751 12.72 87.7991 9.47734C87.7991 9.47734 85.8045 2.74267 84.0591 2.24401C84.0591 2.24401 82.0485 11.692 80.8165 9.228C80.3178 8.23067 82.3125 1.496 79.0698 0.249337C79.0698 0.249337 78.8205 8.23067 75.3298 9.47734C75.3298 9.47734 74.0831 0.997342 70.0911 8.68376e-06C70.0911 8.68376e-06 70.5911 8.97867 65.3538 9.47734C60.1165 9.97601 60.3658 4.48934 56.6245 3.74134C56.6245 3.74134 59.6178 8.97867 58.1205 9.72667C56.6245 10.4747 52.3845 8.23067 48.6431 8.72934C48.6431 8.72934 54.1298 10.724 52.8831 12.72C51.6365 14.7147 42.1591 22.5187 42.1591 39.156C42.1591 49.132 49.6405 58.3613 62.6098 60.356L102.202 37.5107Z" fill="#566278"/>
<path d="M42.4082 213.242L40.9109 212.243C40.9109 212.243 40.9109 207.504 40.6616 205.51C40.4122 203.514 36.1722 202.767 36.1722 202.767L33.9282 207.256L35.1749 209.499C35.1749 209.499 38.9162 213.74 39.1656 214.488C39.4149 215.236 42.4082 213.242 42.4082 213.242Z" fill="#FFD5B5"/>
<path d="M37.4198 195.035C37.4198 195.035 34.9252 189.297 32.1825 190.296C29.4385 191.293 23.7025 193.04 21.2078 197.28C18.7145 201.519 14.4745 211.995 14.4745 212.992C14.4745 213.989 15.2225 216.484 15.2225 216.484L21.7065 209.5L28.9398 199.025L37.4198 195.035Z" fill="#E7E7E7"/>
<path d="M35.1751 209.5C35.1751 209.5 29.4391 209.5 25.9471 213.989C22.4551 218.478 19.4631 222.47 16.9684 220.225C14.4751 217.98 15.4724 215.985 15.9711 215.237C16.4698 214.488 25.6978 199.026 26.6951 198.277C27.6938 197.528 32.6804 192.79 37.4204 195.034C42.1591 197.28 41.1604 206.257 41.1604 206.257C41.1604 206.257 37.4204 204.262 35.1751 209.5Z" fill="#74A7D0"/>
<path d="M61.6542 283.407C61.6542 283.407 56.6422 283.139 55.5915 283.977C54.5422 284.814 54.5582 292.857 55.7688 295.269C56.9808 297.678 58.1968 302.099 58.4808 305.13C58.7662 308.161 59.8022 315.925 66.8502 313.621L65.1768 296.887L61.6542 283.407Z" fill="white"/>
<path d="M79.9459 288.073C79.9459 288.073 73.5139 289.291 71.9713 290.995C70.4273 292.701 68.7873 292.054 68.7873 292.054L66.7673 288.038L68.7406 284.569C68.7406 284.569 74.3686 283.753 77.7699 282.818L79.9459 288.073Z" fill="#FFD5B5"/>
<path d="M73.0846 291.056C73.0846 291.056 68.7233 291.157 68.7406 284.569L71.4619 283.82C71.4619 283.82 66.6286 280.21 62.9806 281.58C59.3339 282.948 59.0566 283.938 59.0646 287.961C59.0726 291.981 62.2059 296.058 62.1206 299.741C62.0353 303.421 62.5833 314.062 68.9553 313.957C68.9553 313.957 71.8926 313.332 70.5206 307.673C69.1473 302.016 71.0486 293.628 73.0846 291.056Z" fill="#74A7D0"/>
<path d="M85.0559 179.821C85.0559 179.821 86.3879 188.385 86.7333 198.643C87.5493 222.781 82.9119 256.305 42.6573 209.749L36.6719 213.74C36.6719 213.74 87.5506 321.981 124.961 201.769C124.961 201.769 128.261 209.744 128.659 220.923C128.849 226.288 128.372 232.388 126.54 238.699C121.908 254.66 108.617 271.963 75.5786 282.077L78.0733 289.56C78.0733 289.56 178.833 294.049 150.4 178.824L145.911 171.341L103.512 172.839L85.0559 179.821Z" fill="#1A5674"/>
<path d="M150.4 178.824L145.911 171.341L103.512 172.839L85.0563 179.821C85.0563 179.821 86.387 188.385 86.7337 198.643C86.7337 198.643 116.318 174.221 147.872 179.111L150.4 178.824Z" fill="#113F56"/>
<path d="M126.54 238.699C128.372 232.388 128.85 226.287 128.659 220.923C128.262 209.744 124.96 201.769 124.96 201.769L132.318 202.667C133.206 207.949 133.651 230.221 129.206 236L126.54 238.699Z" fill="#113F56"/>
<path d="M151.294 32.5204C151.294 32.5204 148.344 22.4057 148.261 18.7097C148.177 15.0137 146.645 12.2177 146.11 11.7497C145.176 10.9311 145.616 8.15239 147.105 9.55505C148.594 10.9577 149.128 14.0897 149.889 13.8204C150.65 13.5497 151.25 11.2537 151.79 8.88572C152.33 6.51905 152.398 4.17639 153.634 4.61905C154.682 4.99239 154.608 5.77505 154.089 8.68305C153.57 11.5884 152.897 13.9444 153.842 13.0884C154.789 12.2311 158.269 6.09239 158.437 5.70439C158.772 4.92839 160.249 4.92039 159.71 6.48439C159.174 8.04839 156.205 13.6937 156.377 14.0444C156.546 14.3937 159.1 10.4564 159.641 9.63105C160.182 8.80572 161.426 6.17505 162.23 6.83505C163.232 7.65905 161.962 9.16039 161.7 9.87505C161.436 10.5911 157.92 15.5857 158.557 15.9764C159.194 16.3671 162.333 13.4177 162.788 13.5911C163.241 13.7644 164.284 14.1231 162.821 15.5391C161.357 16.9551 158.113 19.5604 157.605 20.7911C157.097 22.0204 153.854 30.0577 153.648 32.4551L151.294 32.5204Z" fill="#F1B89A"/>
<path d="M12.4069 142.468C12.4069 142.468 6.00953 150.839 4.6002 154.258C3.18953 157.675 0.753533 159.731 0.0855327 159.975C-1.08113 160.402 -1.6718 163.152 0.222867 162.38C2.11753 161.608 3.7442 158.88 4.3562 159.406C4.96953 159.932 4.70287 162.29 4.3522 164.692C4.00287 167.096 3.22153 169.304 4.53487 169.338C5.64687 169.367 5.85887 168.61 6.42287 165.712C6.98553 162.814 7.2082 160.372 7.7802 161.514C8.35353 162.654 9.3882 169.635 9.40553 170.056C9.43753 170.902 10.8135 171.44 10.8749 169.788C10.9375 168.136 10.2029 161.799 10.4895 161.534C10.7735 161.27 11.7362 165.863 11.9429 166.828C12.1509 167.792 12.3642 170.694 13.3509 170.368C14.5829 169.96 13.9389 168.103 13.9522 167.342C13.9642 166.579 12.4842 160.652 13.2189 160.518C13.9549 160.384 15.8189 164.266 16.3055 164.267C16.7922 164.27 17.8935 164.311 17.0389 162.463C16.1842 160.614 14.0975 157.015 14.0669 155.684C14.0349 154.354 13.9069 145.688 14.5775 143.378L12.4069 142.468Z" fill="#F1B89A"/>
<path d="M101.934 89.1155L109.996 103.361L104.89 115.725L90.9136 110.349L84.7322 93.1461L86.8816 91.8035C86.8816 91.8035 92.5256 88.5781 86.8816 75.1395C86.8816 75.1395 67.2616 77.0208 60.8109 56.0568C60.8109 56.0568 51.4042 56.0568 50.0602 51.4861C48.7162 46.9181 50.3282 43.9608 58.9296 46.3795L65.6482 25.4155L86.8816 20.0395C86.8816 20.0395 90.4762 20.4595 94.6896 24.6288C97.3216 27.2315 100.331 31.4395 101.984 37.5355C101.984 37.5355 107.578 31.8661 109.459 37.7795C111.34 43.6928 105.483 43.2875 105.964 45.3048C108.251 54.8688 106.506 70.5821 91.9216 73.8955C91.9216 73.8955 94.5429 73.5261 95.4829 72.9555C95.4829 72.9555 99.7162 77.3568 101.934 89.1155" fill="#FFD5B5"/>
<path d="M86.8821 91.8029C86.8821 91.8029 92.5261 88.5776 86.8821 75.1389C86.8821 75.1389 67.2621 77.0203 60.8101 56.0563C60.8101 56.0563 51.4034 56.0563 50.0594 51.487C48.7154 46.9176 50.3287 43.9616 58.9301 46.3803L65.6487 25.415C65.6487 25.415 87.9701 51.3483 91.9207 73.8963C91.9207 73.8963 98.5394 91.1096 92.3167 95.9989L86.8821 91.8029Z" fill="#F1B89A"/>
<path d="M90.9134 110.349L84.7321 93.1472L86.8827 91.8032" fill="#FFD5B5"/>
<path d="M58.3918 50.6806C58.3918 50.6806 55.5744 48.8499 55.1664 50.2779C54.6291 52.1579 55.9731 52.2926 56.5104 52.2926C56.5104 52.2926 57.4504 51.8899 58.3918 50.6806" fill="#C5947B"/>
<path d="M104.218 42.6175C104.218 42.6175 109.325 41.1388 105.562 39.3921C105.562 39.3921 104.218 39.6615 103.681 40.8695L104.218 42.6175Z" fill="#C5947B"/>
<path d="M58.9297 46.3797C58.9297 46.3797 59.6177 52.125 65.603 53.373C65.603 53.373 60.3657 38.657 67.3483 29.4304C67.3483 29.4304 70.591 29.1797 72.5857 33.4197C74.5817 37.6597 79.0696 38.657 79.0696 38.657C79.0696 38.657 76.8257 27.185 79.319 24.6904C79.319 24.6904 92.179 19.5357 97.215 27.8077C101.143 34.2624 102.078 37.8157 102.078 37.8157C102.078 37.8157 102.826 34.9157 102.826 33.981C102.826 33.0464 101.33 22.945 97.5883 20.513C93.847 18.081 84.3083 14.1544 78.9776 15.9304C73.6456 17.7077 61.019 25.0957 60.8323 25.377C60.6457 25.657 54.847 38.2837 54.847 38.2837L58.9297 46.3797Z" fill="#566278"/>
<path d="M88.3294 30.8017C89.0507 29.9364 89.9921 29.4191 90.9841 29.0497C91.9827 28.7044 93.0694 28.5471 94.1721 28.6537C95.2734 28.7684 96.3894 29.1671 97.3027 29.8564C98.2134 30.5577 98.8427 31.5831 98.9921 32.6724C97.9361 32.2484 97.1507 31.9004 96.3254 31.7111C95.5094 31.5204 94.7321 31.4017 93.9054 31.3071C92.2347 31.1337 90.4881 31.1444 88.3294 30.8017Z" fill="#3F4959"/>
<path d="M66.1641 44.8303C65.7614 43.8303 65.8614 42.7663 66.1267 41.7956C66.4134 40.821 66.9254 39.9223 67.5827 39.161C68.2574 38.417 69.0547 37.7836 69.9614 37.3703C70.8614 36.9503 71.8454 36.7103 72.8974 36.7876C72.3494 37.709 71.7574 38.373 71.2147 39.0516C70.6494 39.6983 70.1361 40.3276 69.5867 40.917L66.1641 44.8303Z" fill="#3F4959"/>
<path d="M71.4948 47.8232C71.4948 47.8232 72.8974 44.5499 76.6388 44.5499" stroke="#A67F6A" stroke-miterlimit="10" stroke-linecap="round" stroke-linejoin="round"/>
<path d="M93.8475 40.2476C93.8475 40.2476 96.3729 37.8156 99.3662 38.6583" stroke="#A67F6A" stroke-miterlimit="10" stroke-linecap="round" stroke-linejoin="round"/>
<path d="M85.4303 39.9671C85.4303 39.9671 83.841 40.2471 84.7756 42.8658C85.7103 45.4858 87.3943 57.8311 91.697 55.9604C91.697 55.9604 95.345 55.3058 94.5023 53.2471C93.661 51.1898 87.9556 39.7804 87.301 39.3124C86.6463 38.8444 85.4303 39.9671 85.4303 39.9671Z" fill="#EDB08E"/>
<path d="M80.8475 59.5139C80.8475 59.5139 87.7675 63.7232 95.5315 58.5792C95.5315 58.5792 94.6889 59.4205 94.7835 61.0112C94.8755 62.6005 94.8755 63.5365 92.2582 64.1899C89.6395 64.8459 85.5235 67.4632 83.3729 63.7232C81.2209 59.9819 80.8475 59.5139 80.8475 59.5139Z" fill="#E0674B"/>
<path d="M81.9173 48.9443C82.5959 50.3936 80.9093 52.6176 78.1479 53.9096C75.3893 55.2016 72.6013 55.0736 71.9213 53.6229C71.2426 52.1723 72.9306 49.9496 75.6906 48.6576C78.4506 47.3656 81.2386 47.4936 81.9173 48.9443Z" fill="#FFA280"/>
<path d="M102.603 42.6415C102.925 44.0122 101.07 45.6175 98.462 46.2282C95.854 46.8402 93.4794 46.2242 93.1594 44.8535C92.838 43.4828 94.6914 41.8775 97.2994 41.2668C99.9074 40.6562 102.282 41.2708 102.603 42.6415Z" fill="#FFA280"/>
<path d="M35.1751 144.405C35.1751 144.405 28.6911 145.404 28.1924 149.892C27.6938 154.381 30.6858 178.325 58.6191 175.831L56.1244 164.856L35.1751 144.405Z" fill="#9CC6E4"/>
<path d="M40.662 91.5315C40.662 91.5315 22.7047 97.0181 22.7047 114.477C22.7047 131.935 24.6994 146.401 35.1754 144.405C45.65 142.41 38.666 131.437 38.666 131.437L40.662 91.5315Z" fill="#9CC6E4"/>
<path d="M77.0754 86.0445C77.0754 86.0445 54.6287 76.5672 44.6527 85.0472C34.6767 93.5272 30.186 116.971 32.6807 135.427C35.1754 153.883 41.6594 177.326 65.1034 177.326C88.5474 177.326 92.0394 165.355 92.0394 165.355L86.178 134.289L77.0754 86.0445Z" fill="#74A7D0"/>
<g opacity="0.330002">
<g opacity="0.330002">
<path opacity="0.330002" d="M77.0754 86.0445L86.178 134.289L92.0394 165.355C92.0394 165.355 88.5474 177.326 65.1034 177.326C65.1034 177.326 9.3887 87.2019 77.0754 86.0445" fill="#131313"/>
</g>
</g>
<path d="M65.6028 127.945C65.6028 127.945 65.6028 133.417 66.6028 141.334C67.1508 145.677 67.9988 150.756 69.3148 156.072C71.1562 163.518 73.9122 171.43 78.0362 178.434C79.9122 181.622 82.0722 184.621 84.5575 187.304C84.5575 187.304 114.985 167.35 150.4 178.824C150.4 178.824 155.939 161.593 146.716 136.8C145.277 132.93 143.479 128.876 141.243 124.674C139.564 121.52 137.64 118.281 135.436 114.976C135.436 114.976 134.069 113.485 133.383 111.186C132.692 108.877 132.687 105.754 135.436 102.505C140.923 96.0209 165.863 64.5956 155.887 32.1729L151.295 32.5209C151.295 32.5209 144.913 80.0583 123.964 82.5529C103.013 85.0476 101.933 89.1156 101.933 89.1156C101.933 89.1156 104.011 95.0236 99.0228 96.0209C94.0348 97.0183 86.8815 91.8036 86.8815 91.8036C86.8815 91.8036 72.0868 94.0263 58.6188 92.5289C45.1522 91.0329 23.2042 99.5129 14.2255 120.961C14.2255 120.961 8.73884 134.928 10.2348 144.905L15.2228 147.897C15.2228 147.897 27.6935 118.966 47.1468 112.98C66.6002 106.994 67.0988 115.474 66.6002 118.468C66.3455 119.997 66.0908 122.437 65.9028 124.458C65.7215 126.393 65.6028 127.945 65.6028 127.945Z" fill="#FF745F"/>
<path d="M133.383 111.186C134.069 113.486 135.436 114.975 135.436 114.975C137.64 118.282 139.564 121.519 141.244 124.674C143.479 128.876 145.277 132.93 146.716 136.799C146.716 136.799 129.451 133.682 109.248 138.918C89.0467 144.156 69.3147 156.071 69.3147 156.071C67.9987 150.755 67.1507 145.676 66.6027 141.334C65.6027 133.416 65.6027 127.944 65.6027 127.944C65.6027 127.944 65.7214 126.394 65.9027 124.458C65.9027 124.458 100.021 103.503 129.201 110.487L133.383 111.186Z" fill="#FFC689"/>
<g opacity="0.330002">
<g opacity="0.330002">
<path opacity="0.330002" d="M78.0358 178.435C73.9118 171.431 71.1558 163.519 69.3145 156.072C67.9998 150.756 67.1505 145.677 66.6025 141.333C65.6025 133.416 65.6025 127.945 65.6025 127.945C65.6025 127.945 65.7225 126.393 65.9025 124.459C66.0905 122.436 66.3452 119.996 66.5998 118.467C67.0985 115.475 66.5998 106.995 47.1465 112.98C47.1465 112.98 62.5385 101.777 75.8718 109.332C89.2051 116.888 78.0945 148.444 78.0945 155.111C78.0945 161.777 78.0358 178.435 78.0358 178.435Z" fill="#131313"/>
</g>
</g>
<path d="M61.8613 92.7783C61.8613 92.7783 65.3533 78.5623 73.5839 82.0543C81.8133 85.5463 75.5786 121.71 70.8399 130.938C66.1013 140.166 60.6146 148.894 59.8666 149.393C59.8666 149.393 57.8706 154.133 61.3626 156.128C61.3626 156.128 106.755 105 81.3146 78.5623C81.3146 78.5623 73.0239 68.8956 64.8546 77.0663C59.3666 82.5529 57.8706 92.5289 57.8706 92.5289L61.8613 92.7783Z" fill="#9CC6E4"/>
<path d="M110.246 85.0471C110.246 85.0471 112.99 67.5884 124.711 71.3298C136.434 75.0711 139.675 107.743 139.675 109.239C139.675 110.736 138.927 119.963 138.927 119.963C138.927 119.963 133.823 112.882 133.383 111.186C132.942 109.488 123.218 77.0831 117.479 78.3124C113.987 79.0618 112.741 84.2991 112.741 84.2991L110.246 85.0471Z" fill="#9CC6E4"/>
</svg>
