<svg width="162" height="322" viewBox="0 0 162 322" fill="none" xmlns="http://www.w3.org/2000/svg">
<path d="M82.1389 33.5524C82.1389 33.5524 91.4295 35.4991 89.1709 27.7071C86.9109 19.9137 79.7162 29.1951 79.7162 29.1951L82.1389 33.5524Z" fill="#F1B89A"/>
<path d="M85.0138 31.1402C85.0138 31.1402 88.9298 30.2376 87.4725 27.8522C86.0138 25.4656 84.3871 29.1402 84.3871 29.1402L85.0138 31.1402Z" fill="#C5947B"/>
<path d="M80.1348 49.4338C80.1348 49.4338 86.8202 79.8898 57.6015 88.8045C42.0935 93.5365 28.6789 93.5938 18.7629 90.2738C9.99619 87.3378 3.96419 81.7632 1.64019 74.4432C-3.31181 58.8432 4.36419 48.1952 6.09752 47.2058C7.83085 46.2138 9.31618 47.9485 8.57352 50.6712C7.83085 53.3952 11.0509 59.5858 14.0215 56.3672C16.9935 53.1485 16.4975 50.1765 16.4975 45.4712C16.4975 40.7672 12.0402 15.0152 37.2975 5.10985C62.5535 -4.79415 73.4495 5.85251 76.1735 9.07251C78.8975 12.2912 82.3628 24.1765 81.6202 26.6525L80.1348 49.4338Z" fill="#FF7E7B"/>
<g opacity="0.600006">
<g opacity="0.600006">
<path opacity="0.600006" d="M81.6206 26.6525L80.1353 49.4338C80.1353 49.4338 86.8206 79.8898 57.602 88.8045C42.094 93.5365 28.678 93.5938 18.762 90.2738C18.762 90.2738 42.5193 75.6658 44.8526 48.3325C47.186 20.9991 81.6206 26.6525 81.6206 26.6525Z" fill="#D75E5C"/>
</g>
</g>
<path d="M56.8589 212.365C56.8589 212.365 88.0589 217.193 128.544 209.765L127.43 203.823L98.0869 193.052L68.0016 196.393L56.8589 212.365Z" fill="#54527A"/>
<path d="M124.83 123.78L121.487 148.109L124.274 154.609L128.172 156.28L135.23 144.393L135.972 118.765L132.444 114.865L124.83 123.78Z" stroke="#303030" stroke-width="0.5" stroke-miterlimit="10" stroke-linecap="round" stroke-linejoin="round"/>
<path d="M120.93 134.552C120.93 134.552 117.772 147.922 117.958 150.894C118.144 153.865 121.115 166.124 132.072 175.409C143.03 184.693 145.815 184.693 148.6 183.208C151.387 181.722 166.243 168.352 160.115 140.68L141.73 126.381L125.387 118.209L120.93 134.552Z" fill="#34D6A5"/>
<path d="M126.687 125.266L123.159 148.109C123.159 148.109 123.159 153.123 125.759 153.494C128.358 153.866 130.772 148.109 131.33 145.323C131.887 142.538 132.815 126.381 132.815 126.381L126.687 125.266Z" fill="#23A17C"/>
<path d="M121.487 148.109C121.487 148.109 142.535 140.309 152.934 169.526C152.934 169.526 163.335 160.613 159.867 134.861C159.867 134.861 159.867 127.928 150.954 123.966C142.039 120.004 136.591 111.585 133.62 111.09C130.648 110.594 127.554 112.946 125.387 118.209C123.22 123.47 121.487 148.109 121.487 148.109Z" fill="#99E7C9"/>
<path d="M108.116 123.78C108.116 123.78 115.729 124.895 122.416 121.365C129.101 117.837 131.329 125.452 131.329 125.452C131.329 125.452 134.672 123.967 133.187 120.437C131.701 116.909 127.801 113.195 123.159 114.495C118.516 115.795 108.301 118.58 106.816 118.023L108.116 123.78Z" fill="#99E7C9"/>
<path d="M70.9702 60.5093C70.9702 60.5093 75.8942 70.128 77.2969 73.204C78.6982 76.2786 74.7369 77.9826 74.7369 77.9826L66.2942 75.28C66.2942 75.28 68.9742 63.872 61.9489 61.732C54.9222 59.592 48.4689 60.2946 43.9835 53.148C39.4969 46.0013 40.3035 43.268 40.3035 43.268C40.3035 43.268 35.8169 46.8426 32.7715 43.224C29.7249 39.604 32.5502 35.2586 37.9142 36.6266L47.3515 13.468L71.7169 8.08131L81.6209 25.4146V26.652L81.1262 27.396C81.1262 27.396 92.0209 51.1666 70.9702 60.5093Z" fill="#FFD5B5"/>
<path d="M74.7371 77.9833L66.2945 75.2793C66.2945 75.2793 68.9745 63.8726 61.9492 61.7326C54.9225 59.5926 48.4692 60.2953 43.9838 53.1486C39.4972 46.0006 40.3038 43.2673 40.3038 43.2673C40.3038 43.2673 35.8172 46.8433 32.7705 43.2246C29.7252 39.6046 32.5505 35.258 37.9132 36.6273L47.3518 13.4673C47.3518 13.4673 48.1865 45.1113 57.7412 52.666C67.2972 60.222 69.5198 60.8886 69.9638 65.9993C70.4078 71.1113 74.4078 75.778 74.4078 75.778L74.7371 77.9833Z" fill="#F1B89A"/>
<path d="M51.075 18.4442C51.075 18.4442 69.075 13.3336 76.631 18.6669L73.519 11.3336L66.1857 9.33355L56.8523 11.1109L51.075 18.4442Z" fill="#EDB08E"/>
<path d="M38.4097 39.7789L37.791 41.8856C37.791 41.8856 36.4097 40.4056 35.3923 41.8602C35.3923 41.8602 33.4537 39.1736 38.4097 39.7789" fill="#C5947B"/>
<path d="M37.9135 36.6272L39.0309 38.7858C39.0309 38.7858 50.6682 28.3858 54.8789 13.0338C54.8789 13.0338 54.8789 33.0912 44.4775 35.5672C44.4775 35.5672 55.8682 39.5285 63.7922 11.0525C63.7922 11.0525 71.9642 10.8058 74.1922 15.0152C76.4202 19.2245 80.6309 26.1578 81.1255 27.3952L80.8775 23.4338L76.6682 13.2818L73.2015 7.83383L69.9829 6.1005L49.4309 9.3205L37.5455 18.4818L37.7922 35.8152L37.9135 36.6272Z" fill="#FF7E7B"/>
<path d="M49.6785 15.0145C49.6785 15.0145 46.9545 26.6532 42.2491 30.3665C42.2491 30.3665 44.4785 20.2145 49.6785 15.0145Z" fill="#D75E5C"/>
<path d="M45.7163 8.57704C45.7163 8.57704 26.2603 11.5744 33.9363 36.5824L35.8123 36.3104C35.8123 36.3104 38.783 11.7957 45.7163 8.57704" fill="#D75E5C"/>
<path d="M63.4786 28.4501C63.4786 28.4501 65.4786 27.8914 66.9479 31.6714C68.4186 35.4514 69.6692 38.8794 70.3092 39.7528C70.9506 40.6261 70.5159 41.9714 68.7012 42.5128C66.8852 43.0554 65.2386 43.3941 64.6626 41.2088C64.0879 39.0248 61.0439 30.3541 63.4786 28.4501Z" fill="#EDB08E"/>
<path d="M48.4402 38.2906C48.4402 38.2906 51.4122 33.3386 56.1162 35.8146" stroke="#A67F6A" stroke-miterlimit="10" stroke-linecap="round" stroke-linejoin="round"/>
<path d="M71.4682 30.8622C71.4682 30.8622 72.6309 28.5676 76.1735 28.8809" stroke="#A67F6A" stroke-miterlimit="10" stroke-linecap="round" stroke-linejoin="round"/>
<path d="M68.4969 21.7008C69.3742 21.4088 70.2916 21.3395 71.1982 21.3728C72.1089 21.4008 73.0116 21.5781 73.8916 21.8421C75.6222 22.4061 77.3156 23.5088 78.1542 25.1674C77.3329 24.7354 76.6036 24.3248 75.8289 23.9901C75.0502 23.6701 74.2862 23.3515 73.4822 23.1115C71.8862 22.5875 70.2462 22.2115 68.4969 21.7008Z" fill="#D75E5C"/>
<path d="M59.0639 39.872C59.4613 41.0373 57.6319 42.7146 54.9786 43.6186C52.3253 44.524 49.8519 44.3133 49.4546 43.148C49.0573 41.9826 50.8866 40.3053 53.5399 39.4C56.1933 38.496 58.6666 38.7066 59.0639 39.872Z" fill="#FFA280"/>
<path d="M80.3308 33.4338C80.6802 34.4592 79.0695 35.9365 76.7335 36.7338C74.3975 37.5298 72.2202 37.3445 71.8695 36.3192C71.5202 35.2925 73.1308 33.8152 75.4668 33.0178C77.8028 32.2218 79.9815 32.4072 80.3308 33.4338Z" fill="#FFA280"/>
<path d="M58.9949 48.1023C58.9949 48.1023 62.7095 56.5517 69.3015 53.8597C75.8949 51.1663 72.6442 47.8237 72.5509 47.3597L72.4589 46.8957C72.4589 46.8957 74.4095 45.5023 74.5015 44.7597C74.5015 44.7597 72.1802 43.9237 71.9015 43.4597C71.6229 42.9957 70.7869 43.0877 70.2309 43.9237C69.6735 44.7597 68.6522 46.5237 68.6522 46.5237C68.6522 46.5237 67.6309 44.2023 66.7949 44.945C65.9589 45.6877 64.3802 47.545 62.8949 47.6383C61.4095 47.7317 58.9949 48.1023 58.9949 48.1023Z" fill="#D75E5C"/>
<path d="M62.0594 49.8049C62.0594 49.8049 64.8621 53.2116 68.9647 51.8076C73.0674 50.4036 71.5767 47.9929 71.4687 47.4529C71.4687 47.4529 69.6127 47.9209 69.0727 48.5689C68.5327 49.2169 68.2981 48.8716 67.1287 49.1089C65.5261 49.4342 62.0594 49.8049 62.0594 49.8049Z" fill="white"/>
<path d="M64.0398 207.165C64.0398 207.165 78.7732 248.393 60.2025 295.193C60.2025 295.193 55.3732 298.536 54.6305 299.649C53.8878 300.764 57.2305 309.306 57.2305 309.306L63.1732 315.993L70.2305 317.85L73.9452 311.908C73.9452 311.908 63.9158 302.993 64.2878 300.022C64.6585 297.05 93.2585 263.993 93.2585 201.222L76.9158 200.48L64.0398 207.165Z" fill="#FFE9DA"/>
<path d="M96.6017 200.851C96.6017 200.851 105.887 237.251 88.059 265.85C70.231 294.45 73.2017 294.45 73.2017 294.45L77.659 307.079L82.487 309.678L87.687 304.85C87.687 304.85 82.487 293.335 79.1443 292.22C79.1443 292.22 127.8 245.05 122.972 204.936L109.23 199.366L96.6017 200.851Z" fill="#FFE9DA"/>
<path d="M58.5926 296.307C58.5926 296.307 55.8686 295.564 52.4019 301.011C48.9353 306.459 54.6299 310.916 56.1166 312.155C57.6019 313.392 64.2873 322.059 69.9819 321.316C75.6779 320.574 78.6486 315.374 72.9539 310.668C72.9539 310.668 71.7166 319.088 62.5539 312.155C62.5539 312.155 69.4873 309.926 70.2313 308.44L69.9819 304.974L68.2499 304.726C68.2499 304.726 68.0019 308.44 60.3259 307.946C60.3259 307.946 51.6593 301.755 58.5926 296.307" fill="#54527A"/>
<path d="M73.2019 292.345C73.2019 292.345 70.4779 292.594 72.2113 297.793C73.9446 302.993 74.6873 317.355 82.1166 315.87C89.5446 314.383 90.0393 306.954 86.3259 301.755C86.3259 301.755 81.3726 312.402 75.4299 300.763C75.4299 300.763 82.3633 297.05 83.8486 298.039C83.8486 298.039 83.1059 295.069 81.8686 295.069L74.6873 298.289C74.6873 298.289 72.9539 293.089 73.2019 292.345Z" fill="#54527A"/>
<path d="M74.935 214.966C74.935 215.716 74.3257 216.327 73.5737 216.327C72.8217 216.327 72.211 215.716 72.211 214.966C72.211 214.214 72.8217 213.604 73.5737 213.604C74.3257 213.604 74.935 214.214 74.935 214.966Z" fill="#54527A"/>
<path d="M84.519 209.587C84.519 210.339 83.9097 210.948 83.1577 210.948C82.4057 210.948 81.7963 210.339 81.7963 209.587C81.7963 208.835 82.4057 208.225 83.1577 208.225C83.9097 208.225 84.519 208.835 84.519 209.587Z" fill="#54527A"/>
<path d="M86.1981 222.823C86.1981 223.575 85.5874 224.184 84.8367 224.184C84.0847 224.184 83.4741 223.575 83.4741 222.823C83.4741 222.072 84.0847 221.461 84.8367 221.461C85.5874 221.461 86.1981 222.072 86.1981 222.823Z" fill="#54527A"/>
<path d="M77.0743 233.166C77.0743 233.917 76.4637 234.528 75.713 234.528C74.9597 234.528 74.3503 233.917 74.3503 233.166C74.3503 232.414 74.9597 231.805 75.713 231.805C76.4637 231.805 77.0743 232.414 77.0743 233.166Z" fill="#54527A"/>
<path d="M85.0659 241.277C85.0659 242.029 84.4553 242.638 83.7046 242.638C82.9526 242.638 82.3419 242.029 82.3419 241.277C82.3419 240.526 82.9526 239.916 83.7046 239.916C84.4553 239.916 85.0659 240.526 85.0659 241.277Z" fill="#54527A"/>
<path d="M73.7195 245.759C73.7195 246.509 73.1102 247.12 72.3582 247.12C71.6062 247.12 70.9955 246.509 70.9955 245.759C70.9955 245.007 71.6062 244.397 72.3582 244.397C73.1102 244.397 73.7195 245.007 73.7195 245.759Z" fill="#54527A"/>
<path d="M81.0926 254.291C81.0926 255.042 80.4819 255.653 79.7313 255.653C78.9779 255.653 78.3686 255.042 78.3686 254.291C78.3686 253.539 78.9779 252.93 79.7313 252.93C80.4819 252.93 81.0926 253.539 81.0926 254.291Z" fill="#54527A"/>
<path d="M74.1069 260.602C74.1069 261.354 73.4962 261.964 72.7455 261.964C71.9922 261.964 71.3829 261.354 71.3829 260.602C71.3829 259.852 71.9922 259.241 72.7455 259.241C73.4962 259.241 74.1069 259.852 74.1069 260.602Z" fill="#54527A"/>
<path d="M76.4553 272.178C76.4553 272.929 75.8446 273.539 75.0939 273.539C74.3406 273.539 73.7313 272.929 73.7313 272.178C73.7313 271.426 74.3406 270.817 75.0939 270.817C75.8446 270.817 76.4553 271.426 76.4553 272.178Z" fill="#54527A"/>
<path d="M69.9669 281.312C69.9669 282.063 69.3562 282.673 68.6055 282.673C67.8535 282.673 67.2429 282.063 67.2429 281.312C67.2429 280.56 67.8535 279.951 68.6055 279.951C69.3562 279.951 69.9669 280.56 69.9669 281.312Z" fill="#54527A"/>
<path d="M65.3569 292.449C65.3569 293.201 64.7462 293.81 63.9955 293.81C63.2435 293.81 62.6329 293.201 62.6329 292.449C62.6329 291.697 63.2435 291.087 63.9955 291.087C64.7462 291.087 65.3569 291.697 65.3569 292.449Z" fill="#54527A"/>
<path d="M63.3309 302.923C63.3309 303.673 62.7215 304.284 61.9695 304.284C61.2175 304.284 60.6069 303.673 60.6069 302.923C60.6069 302.171 61.2175 301.561 61.9695 301.561C62.7215 301.561 63.3309 302.171 63.3309 302.923Z" fill="#54527A"/>
<path d="M84.8751 284.269C84.8751 285.02 84.2645 285.63 83.5138 285.63C82.7618 285.63 82.1511 285.02 82.1511 284.269C82.1511 283.517 82.7618 282.908 83.5138 282.908C84.2645 282.908 84.8751 283.517 84.8751 284.269Z" fill="#54527A"/>
<path d="M93.3745 267.747C93.3745 268.498 92.7638 269.108 92.0131 269.108C91.2611 269.108 90.6505 268.498 90.6505 267.747C90.6505 266.995 91.2611 266.386 92.0131 266.386C92.7638 266.386 93.3745 266.995 93.3745 267.747Z" fill="#54527A"/>
<path d="M102.703 255.071C102.703 255.823 102.093 256.432 101.341 256.432C100.589 256.432 99.9786 255.823 99.9786 255.071C99.9786 254.319 100.589 253.71 101.341 253.71C102.093 253.71 102.703 254.319 102.703 255.071Z" fill="#54527A"/>
<path d="M105.708 238.918C105.708 239.668 105.098 240.279 104.346 240.279C103.594 240.279 102.984 239.668 102.984 238.918C102.984 238.166 103.594 237.556 104.346 237.556C105.098 237.556 105.708 238.166 105.708 238.918Z" fill="#54527A"/>
<path d="M113.961 234.729C113.961 235.479 113.35 236.09 112.6 236.09C111.846 236.09 111.237 235.479 111.237 234.729C111.237 233.977 111.846 233.367 112.6 233.367C113.35 233.367 113.961 233.977 113.961 234.729Z" fill="#54527A"/>
<path d="M111.805 223.984C111.805 224.735 111.194 225.345 110.444 225.345C109.692 225.345 109.081 224.735 109.081 223.984C109.081 223.232 109.692 222.623 110.444 222.623C111.194 222.623 111.805 223.232 111.805 223.984Z" fill="#54527A"/>
<path d="M106.734 212.128C106.734 212.88 106.124 213.49 105.373 213.49C104.621 213.49 104.01 212.88 104.01 212.128C104.01 211.378 104.621 210.767 105.373 210.767C106.124 210.767 106.734 211.378 106.734 212.128Z" fill="#54527A"/>
<path d="M117.483 204.851C117.483 205.603 116.873 206.213 116.122 206.213C115.37 206.213 114.759 205.603 114.759 204.851C114.759 204.101 115.37 203.49 116.122 203.49C116.873 203.49 117.483 204.101 117.483 204.851Z" fill="#54527A"/>
<path d="M124.23 25.5985C124.23 25.5985 124.741 15.1518 125.862 11.6558C126.982 8.15983 126.453 5.03983 126.102 4.42783C125.489 3.35583 126.805 0.891831 127.746 2.6905C128.689 4.48916 128.174 7.60116 128.977 7.59583C129.778 7.58916 131.086 5.62916 132.361 3.5825C133.635 1.53583 134.458 -0.640169 135.475 0.175831C136.337 0.866498 136.013 1.57716 134.583 4.13583C133.153 6.69583 131.758 8.68783 132.923 8.1905C134.09 7.69316 139.346 3.06116 139.629 2.75183C140.195 2.13183 141.583 2.60516 140.571 3.89716C139.561 5.1905 134.943 9.52516 134.99 9.90916C135.037 10.2932 138.71 7.4265 139.485 6.8265C140.261 6.22783 142.282 4.16383 142.821 5.04383C143.494 6.1425 141.815 7.1385 141.338 7.72383C140.859 8.3105 135.939 11.8572 136.41 12.4305C136.882 13.0025 140.783 11.2532 141.153 11.5638C141.523 11.8745 142.386 12.5478 140.553 13.4025C138.719 14.2572 134.833 15.6492 133.955 16.6385C133.079 17.6278 127.43 24.1185 126.459 26.3012L124.23 25.5985Z" fill="#FFD5B5"/>
<path d="M127.801 26.2815C127.801 26.2815 130.084 53.3174 120.889 76.1281C116.709 86.4974 110.158 95.9934 99.9435 101.68L95.4875 99.4521L89.9155 83.4801C89.9155 83.4801 118.144 70.1095 122.973 25.5388L127.801 26.2815Z" fill="#FFADA7"/>
<g opacity="0.199997">
<g opacity="0.199997">
<path opacity="0.199997" d="M120.889 76.1285C116.709 86.4965 110.158 95.9925 99.9449 101.681L95.4875 99.4525C95.4875 99.4525 114.186 87.9992 118.52 78.9992L120.889 76.1285Z" fill="#131313"/>
</g>
</g>
<path d="M62.8022 77.538L56.8582 80.138C56.8582 80.138 63.5449 119.881 58.3449 144.023C53.1449 168.165 51.6596 201.594 56.8582 212.366C56.8582 212.366 103.658 193.051 128.544 209.765C128.544 209.765 122.973 116.166 84.3449 77.1673L74.7369 77.9833L74.1542 78.0686L67.6302 79.0233L62.8022 77.538Z" fill="#AAA8F2"/>
<g opacity="0.199997">
<g opacity="0.199997">
<path opacity="0.199997" d="M73.573 78.0953C73.573 78.0953 76.5197 116.999 87.853 122.999C99.1863 128.999 111.186 131.333 111.186 131.333C111.186 131.333 102.52 136.666 87.853 135.999C80.5197 135.666 60.7303 189.578 55.1863 191.666C49.6423 193.755 58.345 144.023 58.345 144.023C63.545 119.881 56.8583 80.1379 56.8583 80.1379L62.8023 77.538L67.6303 79.0233L74.1543 78.0686" fill="#131313"/>
</g>
</g>
<path d="M66.2945 75.2796L62.8025 77.5382L67.8158 92.9516L73.5732 78.0956L87.3158 88.3089L84.7158 74.9382L77.2958 73.2036C77.2958 73.2036 77.4732 77.9102 72.6452 76.9809C67.8158 76.0529 67.3732 75.8062 66.2945 75.2796Z" fill="#54527A"/>
<path d="M47.6662 87.5666L53.6089 82.3666C53.6089 82.3666 51.6595 75.4026 48.3169 76.6093C44.9729 77.8173 47.6662 87.5666 47.6662 87.5666Z" fill="#23A17C"/>
<path d="M56.8588 80.1382C56.8588 80.1382 37.5455 90.9089 33.4588 115.052C29.3735 139.194 39.2082 146.926 55.0015 134.737C66.5682 125.812 70.6015 115.794 70.6015 115.794L66.8868 111.337C66.8868 111.337 60.7708 117.454 55.3402 121.221C51.4028 123.952 47.8268 125.446 47.2015 122.48C46.3802 118.573 47.2655 112.844 49.7948 107.121C51.8348 102.508 54.9428 97.8996 59.0868 94.2516L56.8588 80.1382Z" fill="#FFADA7"/>
<g opacity="0.199997">
<g opacity="0.199997">
<path opacity="0.199997" d="M55.3399 121.221C51.4026 123.952 47.8266 125.446 47.2013 122.48C46.3799 118.573 47.2653 112.844 49.7946 107.121C49.7946 107.121 37.5199 123 43.8533 127.666C50.1866 132.333 55.3399 121.221 55.3399 121.221Z" fill="#131313"/>
</g>
</g>
<path d="M46.4591 79.1168C46.4591 79.1168 45.9018 74.9381 49.6165 73.4514C53.3311 71.9661 56.3018 72.2448 58.7165 75.2168C61.1298 78.1874 67.4445 108.181 85.4591 118.023C103.472 127.866 123.158 126.938 129.844 137.151C129.844 137.151 132.072 142.723 128.172 142.909C128.172 142.909 122.787 133.066 114.43 133.066C106.072 133.066 85.2725 134.179 69.6738 115.981C54.0738 97.7808 54.2591 84.2234 53.6085 82.3674C52.9591 80.5088 49.2445 72.3381 46.4591 79.1168Z" fill="#99E7C9"/>
<path d="M73.8907 103.999C70.9641 102.791 71.0747 101.776 69.7414 103.999C68.4081 106.222 66.8881 111.338 66.8881 111.338L69.8281 114.866C69.8281 114.866 75.9587 114.691 77.8507 112.122C79.7414 109.555 79.6667 109.85 78.8907 108.776C78.1161 107.702 77.4334 106.378 77.5201 105.488C77.6054 104.599 75.1321 104.511 73.8907 103.999Z" fill="#FFD5B5"/>
</svg>
