<svg width="144" height="261" viewBox="0 0 144 261" fill="none" xmlns="http://www.w3.org/2000/svg">
<path d="M35.3724 60.8682C35.3724 60.8682 25.3111 63.8869 27.0711 55.0829C28.8324 46.2802 37.6351 55.8375 37.6351 55.8375L35.3724 60.8682Z" fill="#F1B89A"/>
<path d="M31.9766 58.479C31.9766 58.479 27.5752 57.8497 28.9579 55.083C30.3406 52.3164 32.4792 56.215 32.4792 56.215L31.9766 58.479Z" fill="#C5947B"/>
<path d="M21.0651 38.5532C21.0651 38.5532 23.4718 28.2038 23.3491 24.4772C23.2278 20.7505 24.6131 17.8505 25.1251 17.3492C26.0224 16.4732 25.4238 13.6985 24.0011 15.1945C22.5811 16.6905 22.2171 19.8732 21.4358 19.6438C20.6544 19.4145 19.9224 17.1372 19.2464 14.7825C18.5704 12.4292 18.3704 10.0745 17.1504 10.5878C16.1171 11.0238 16.2358 11.8078 16.9211 14.7052C17.6051 17.6038 18.4144 19.9385 17.4144 19.1278C16.4144 18.3172 12.5664 12.3305 12.3758 11.9492C11.9944 11.1865 10.5078 11.2625 11.1371 12.8065C11.7638 14.3505 15.0691 19.8705 14.9171 20.2318C14.7638 20.5945 11.9744 16.7718 11.3824 15.9705C10.7931 15.1692 9.39178 12.5905 8.61978 13.3012C7.65711 14.1865 9.01978 15.6265 9.32378 16.3318C9.62911 17.0372 13.4478 21.8705 12.8278 22.2998C12.2091 22.7278 8.88378 19.9345 8.43578 20.1345C7.98778 20.3332 6.95844 20.7532 8.51178 22.0972C10.0638 23.4425 13.4758 25.8838 14.0558 27.0945C14.6371 28.3038 18.3504 36.2172 18.6918 38.6185L21.0651 38.5532Z" fill="#FFD5B5"/>
<path d="M122.044 57.1573C122.044 57.1573 123.926 46.7 125.512 43.3253C127.096 39.9506 126.97 36.7386 126.698 36.076C126.222 34.916 127.867 32.6053 128.582 34.5413C129.295 36.4773 128.371 39.544 129.18 39.6426C129.987 39.7413 131.562 37.9386 133.112 36.0426C134.664 34.148 135.778 32.064 136.695 33.0186C137.472 33.8266 137.054 34.5 135.279 36.8906C133.506 39.2813 131.839 41.1066 133.078 40.7586C134.316 40.4093 140.218 36.4306 140.543 36.156C141.195 35.6053 142.531 36.264 141.343 37.4333C140.155 38.6026 134.938 42.3666 134.935 42.76C134.932 43.1533 139.007 40.744 139.866 40.2426C140.726 39.74 143.031 37.9253 143.459 38.8813C143.994 40.076 142.174 40.86 141.615 41.388C141.056 41.916 135.635 44.8453 136.035 45.484C136.436 46.1226 140.594 44.8706 140.927 45.232C141.259 45.592 142.039 46.384 140.08 47.0053C138.124 47.6266 134.024 48.52 133.014 49.4026C132.002 50.2853 125.462 56.0853 124.199 58.156L122.044 57.1573Z" fill="#F1B89A"/>
<path d="M94.4793 161.226C94.4793 161.226 99.7619 163.238 101.019 151.919C102.278 140.6 104.289 136.074 96.9953 135.822C89.7006 135.57 92.7193 136.576 92.7193 136.576L94.4793 161.226Z" fill="#9CC6E4"/>
<path d="M92.7188 130.54C92.7188 130.54 99.2588 125.007 100.264 120.983C101.271 116.958 95.4855 95.5789 88.9468 87.7816C82.4068 79.9843 76.8735 80.2349 74.3575 79.9843C71.8428 79.7336 65.0522 86.2723 65.0522 86.2723L92.7188 130.54Z" fill="#9CC6E4"/>
<path d="M19.7773 220.332C19.7773 220.332 20.532 281.704 62.536 251.019C104.54 220.332 105.296 200.463 105.296 200.463V197.947L94.9827 195.432C94.9827 195.432 90.1813 219.752 78.5093 229.492C75.308 232.163 71.5907 233.738 67.3147 233.412C51.7333 232.228 41.66 219.579 41.66 219.579L30.8787 219.95L19.7773 220.332Z" fill="#F6D6C9"/>
<g opacity="0.330002">
<g opacity="0.330002">
<path opacity="0.330002" d="M78.5091 229.493C75.3091 232.163 71.5918 233.738 67.3144 233.411C51.7331 232.229 41.6598 219.578 41.6598 219.578L30.8784 219.95C30.8784 219.95 31.5558 247.215 56.8891 247.549C82.2224 247.882 78.5091 229.493 78.5091 229.493Z" fill="#131313"/>
</g>
</g>
<path d="M94.7317 198.451C94.7317 198.451 93.2224 192.666 99.0064 191.408C104.792 190.15 112.086 197.194 112.086 197.194L109.068 202.476C109.068 202.476 100.768 197.194 94.7317 198.451Z" fill="#3F4959"/>
<path d="M37.3841 217.818C37.3841 217.818 35.6241 257.558 61.2788 260.575C86.9335 263.594 103.787 216.811 104.289 215.554C104.792 214.295 109.319 205.745 114.099 212.787C118.877 219.83 120.889 222.847 121.896 223.099C122.901 223.351 124.663 220.837 124.663 220.837L124.411 210.775L114.099 196.942L110.577 195.683C110.577 195.683 102.78 201.721 94.4788 215.302C86.1801 228.885 77.8788 242.466 70.5841 237.185C63.2908 231.902 67.3148 220.837 67.3148 220.837L54.2361 218.571L37.3841 217.818Z" fill="#FFE9DA"/>
<path d="M108.565 196.691C108.565 196.691 110.325 196.439 114.098 200.212C117.87 203.985 127.428 219.328 119.882 221.088C119.882 221.088 122.148 227.124 126.172 226.117C130.196 225.112 130.95 216.812 126.172 208.512C121.392 200.212 115.86 193.168 113.594 193.42C111.332 193.672 108.565 196.691 108.565 196.691Z" fill="#3F4959"/>
<path d="M10.7227 219.83L12.9867 229.135C12.9867 229.135 39.396 215.805 71.8427 225.113L74.3587 215.554C74.3587 215.554 36.1267 210.525 35.372 210.525C34.6174 210.525 10.7227 219.83 10.7227 219.83Z" fill="#566278"/>
<path d="M55.7448 80.4875C55.7448 80.4875 34.8689 72.6901 26.3182 94.5715C17.7662 116.455 0.15952 143.87 12.4835 163.489C24.8089 183.109 66.3088 185.874 76.6208 183.109C86.9342 180.342 97.4968 168.519 97.2462 150.158C96.9942 131.797 92.4675 82.7515 72.0942 83.0021C51.7209 83.2541 55.7448 80.4875 55.7448 80.4875Z" fill="#74A7D0"/>
<path d="M50.2123 89.5421C50.2123 89.5421 45.6843 100.609 44.4269 104.13C43.1696 107.651 47.6963 109.161 47.6963 109.161L56.7509 105.387C56.7509 105.387 52.7269 93.0634 60.2723 90.0447C67.8176 87.0261 73.6029 86.0207 77.8789 77.7207C82.1549 69.4207 82.4069 67.6594 82.4069 67.6594C82.4069 67.6594 87.6882 71.1807 90.7069 66.9047C93.7256 62.6287 90.2029 58.1021 84.4189 60.1141L71.8429 35.4647L62.5362 33.7047L34.6176 50.8074L33.3589 53.3221L35.8749 55.3354C35.8749 55.3354 24.8083 80.7381 50.2123 89.5421" fill="#FFD5B5"/>
<path d="M71.8424 35.4647L84.4198 60.114C90.2038 58.102 93.7251 62.63 90.7064 66.9047C87.6891 71.1807 82.4064 67.6594 82.4064 67.6594C82.4064 67.6594 82.1544 69.4207 77.8784 77.7207C73.6024 86.0207 67.8171 87.026 60.2718 90.0447C52.7264 93.0634 56.7518 105.387 56.7518 105.387L47.6971 109.161C47.6971 109.161 53.8891 88.5487 57.2224 86.2154C60.5558 83.882 73.1291 75.0474 71.8424 35.4647" fill="#F1B89A"/>
<path d="M84.1667 63.6352L85.0481 65.8992C85.0481 65.8992 86.4307 64.1379 87.6894 65.6472C87.6894 65.6472 89.5761 62.5032 84.1667 63.6352" fill="#C5947B"/>
<path d="M82.1549 35.968C82.1549 35.968 82.1549 22.6373 95.4856 18.3613C108.816 14.0853 93.2229 -7.10915e-06 93.2229 -7.10915e-06C93.2229 -7.10915e-06 100.768 6.03732 101.019 5.28266C101.271 4.52799 100.264 0.502658 100.264 0.502658C100.264 0.502658 121.14 27.9187 110.074 40.496C99.0069 53.072 87.4376 51.3107 87.4376 51.3107L82.1549 35.968Z" fill="#FF745F"/>
<path d="M84.9219 37.477C84.9219 37.477 106.805 34.2064 107.559 12.325C107.559 12.325 110.074 16.349 110.074 17.3557C110.074 17.3557 110.577 42.5077 87.9406 45.0224L84.9219 37.477Z" fill="#CF5546"/>
<path d="M66.8126 36.408C66.8126 36.408 67.0446 45.324 71.0886 52.5706C73.3526 56.6253 76.8112 60.1573 82.0926 61.308C82.0926 61.308 83.3499 61.1826 84.4192 60.1133C84.4192 60.1133 86.4312 59.2333 88.1286 59.6106C88.1286 59.6106 91.5246 52.0653 89.0712 43.0106C86.6192 33.956 80.3952 28.108 75.8672 28.108C71.3406 28.108 68.6992 29.428 68.1326 29.9933C68.1326 29.9933 63.6059 22.6373 52.0979 27.164C40.5912 31.692 33.6126 36.7853 32.8566 51.8773C32.8566 51.8773 35.8752 53.5746 36.0632 54.14C36.0632 54.14 36.4419 51.1226 41.1579 49.8013C43.0206 49.28 45.2379 48.8466 48.1019 47.8133C52.4819 46.2346 58.3712 43.252 66.8126 36.408Z" fill="#FF745F"/>
<path d="M71.0886 52.5701C67.0446 45.3248 66.8126 36.4074 66.8126 36.4074C58.3713 43.2528 52.4819 46.2341 48.1019 47.8141C48.1019 47.8141 56.0606 46.9714 63.6059 42.6328C63.6059 42.6328 65.8686 48.2928 69.4526 51.4994L71.0886 52.5701Z" fill="#EDB08E"/>
<path d="M66.6238 33.201C66.6238 33.201 52.2864 27.5424 41.7224 38.861C41.7224 38.861 52.6638 32.6357 66.6238 33.201Z" fill="#CF5546"/>
<path d="M50.7773 39.2374C50.7773 39.2374 58.7 35.0881 65.1147 35.8428C65.1147 35.8428 57.7573 39.6148 50.7773 39.2374Z" fill="#CF5546"/>
<path d="M69.0755 33.7668C69.0755 33.7668 76.9981 37.3508 79.6395 50.5561C79.6395 50.5561 84.1661 35.8428 69.0755 33.7668Z" fill="#CF5546"/>
<path d="M39.2708 58.4791C39.2708 58.4791 43.2322 56.9697 46.4388 59.2337" stroke="#A67F6A" stroke-miterlimit="10" stroke-linecap="round" stroke-linejoin="round"/>
<path d="M64.1719 62.8176C64.1719 62.8176 67.7559 60.9309 71.1506 64.1389" stroke="#A67F6A" stroke-miterlimit="10" stroke-linecap="round" stroke-linejoin="round"/>
<path d="M54.362 58.6678C54.362 58.6678 52.286 58.2905 51.1554 62.2518C50.0234 66.2132 49.0794 69.7972 48.514 70.7412C47.9474 71.6838 48.514 73.0038 50.4007 73.3825C52.286 73.7585 53.9847 73.9478 54.362 71.6838C54.7394 69.4198 57.002 60.3652 54.362 58.6678Z" fill="#EDB08E"/>
<path d="M45.4063 65.3104C45.1863 66.3824 43.0636 66.853 40.665 66.3624C38.2676 65.8704 36.4996 64.6037 36.7196 63.5317C36.9383 62.4597 39.061 61.989 41.4596 62.481C43.8583 62.9717 45.625 64.2384 45.4063 65.3104Z" fill="#FFA280"/>
<path d="M71.1888 69.5864C70.9688 70.6584 68.8462 71.129 66.4475 70.6384C64.0502 70.1464 62.2822 68.8797 62.5022 67.8077C62.7222 66.7357 64.8435 66.265 67.2435 66.7557C69.6422 67.2477 71.4075 68.5144 71.1888 69.5864Z" fill="#FFA280"/>
<path d="M40.9049 74.4504C40.9049 74.4504 43.4209 79.229 50.2116 80.1104C57.0023 80.9904 61.1543 77.8464 61.1543 77.8464C61.1543 77.8464 59.3916 77.5944 58.1343 77.8464C56.8769 78.097 54.8649 77.3424 53.8596 77.217C52.8529 77.0917 51.4703 78.4757 50.7143 78.349C49.9609 78.2237 48.3249 75.8344 47.4449 75.8344C46.5649 75.8344 44.5516 77.721 40.9049 74.4504Z" fill="#D75E5C"/>
<path d="M53.4818 84.5116C53.4818 84.5116 50.9658 83.1276 49.9604 83.3796C48.9538 83.6316 48.8284 84.8889 49.7084 85.6436C50.5884 86.3982 52.6018 86.1462 53.4818 84.5116Z" fill="#EDB08E"/>
<path d="M50.3789 61.8371C49.4136 67.5917 44.6683 71.5917 39.7776 70.7717C34.8869 69.9517 31.7029 64.6224 32.6683 58.8691C33.6309 53.1144 38.3789 49.1144 43.2696 49.9344C48.1603 50.7544 51.3443 56.0837 50.3789 61.8371Z" stroke="#566278" stroke-miterlimit="10"/>
<path d="M77.5456 66.7015C76.5802 72.4549 71.5522 76.4082 66.3136 75.5309C61.0749 74.6522 57.6096 69.2762 58.5736 63.5215C59.5389 57.7682 64.5683 53.8149 69.8056 54.6935C75.0442 55.5709 78.5109 60.9482 77.5456 66.7015Z" stroke="#566278" stroke-miterlimit="10"/>
<path d="M34.6172 53.574C34.6172 53.574 37.8866 50.1793 43.5466 51.6873C49.2052 53.1967 50.3372 59.1073 50.3372 59.1073C50.3372 59.1073 51.5946 57.0953 54.7399 57.85C57.8826 58.6047 58.8892 60.994 58.8892 60.994C58.8892 60.994 62.1586 55.0833 70.0826 56.3407C78.0052 57.5993 77.5452 66.702 77.5452 66.702L83.4132 60.8687L82.0919 61.3087L78.7585 63.886C78.7585 63.886 78.1305 55.838 70.4599 54.8313C62.7879 53.826 59.3919 58.8567 59.3919 58.8567C59.3919 58.8567 57.3799 56.718 54.7399 56.466C52.0972 56.2153 50.5892 57.2207 50.5892 57.2207C50.5892 57.2207 50.5892 50.682 43.9226 49.6753C37.2586 48.67 34.6172 53.574 34.6172 53.574Z" fill="#3F4959"/>
<path d="M30.3412 214.8C30.3412 214.8 14.4959 219.579 4.93723 225.867C4.93723 225.867 -14.4294 190.151 23.5506 126.516C23.5506 126.516 5.31456 102.244 17.0106 36.2187L22.2932 36.9733C22.2932 36.9733 19.6519 97.716 34.3666 110.544L44.1759 111.299L46.0612 116.957C46.0612 116.957 54.7399 111.676 55.8706 110.921C57.0026 110.167 64.5479 112.053 64.5479 112.053C64.5479 112.053 88.6946 93.944 121.896 54.7067C121.896 54.7067 126.424 56.216 127.177 57.724C127.177 57.724 102.277 104.131 87.5626 118.089C72.8492 132.049 76.2452 156.195 76.2452 158.836C76.2452 161.477 79.6399 216.56 78.8852 220.711C78.8852 220.711 72.4506 218.607 63.1706 216.816C53.8772 215.023 41.7319 213.541 30.3412 214.8Z" fill="#F7BD6F"/>
<g opacity="0.199997">
<g opacity="0.199997">
<path opacity="0.199997" d="M63.1706 216.816C72.4506 218.608 78.8852 220.71 78.8852 220.71C79.6399 216.561 76.2452 161.477 76.2452 158.837C76.2452 156.196 72.8492 132.049 87.5626 118.09C87.5626 118.09 59.5559 136.216 62.8892 202.882L63.1706 216.816Z" fill="#131313"/>
</g>
</g>
<path d="M45.1809 120.982C45.1809 120.982 27.8263 169.274 30.3409 214.8L16.6343 219.956C16.6343 219.956 15.2503 173.298 45.1809 120.982Z" fill="#BB8E52"/>
<path d="M52.853 154.875C52.853 158.104 50.825 160.723 48.325 160.723C45.825 160.723 43.7983 158.104 43.7983 154.875C43.7983 151.645 45.825 149.027 48.325 149.027C50.825 149.027 52.853 151.645 52.853 154.875Z" fill="white"/>
<path d="M46.8165 194.115C46.8165 197.344 44.7885 199.963 42.2885 199.963C39.7885 199.963 37.7618 197.344 37.7618 194.115C37.7618 190.884 39.7885 188.266 42.2885 188.266C44.7885 188.266 46.8165 190.884 46.8165 194.115Z" fill="white"/>
<path d="M37.1328 105.137C37.1328 105.137 25.5621 91.8059 8.71146 112.179C-8.14054 132.553 11.9808 147.895 11.9808 147.895L14.4955 143.367C14.4955 143.367 4.18346 134.313 8.96213 124.001C13.7408 113.689 20.2808 106.897 31.8501 115.951L37.1328 105.137Z" fill="#567D9D"/>
<path d="M67.0639 109.664C67.0639 109.664 70.3332 105.136 74.8612 113.437C79.3879 121.737 87.6892 144.625 83.1612 154.687C78.6345 164.747 76.6212 162.987 76.6212 162.987L76.8732 166.507C76.8732 166.507 94.9825 161.98 94.4799 144.877C93.9772 127.773 88.4425 101.364 73.0999 101.867C73.0999 101.867 67.8172 104.885 67.0639 109.664Z" fill="#567D9D"/>
<path d="M40.9049 105.136L45.1809 120.982L58.2609 108.155L56.7516 105.387C56.7516 105.387 49.9609 109.664 44.4276 104.13L40.9049 105.136Z" fill="#566278"/>
<path d="M42.2891 99.9803C42.2891 99.9803 27.5758 107.903 31.8504 126.264L44.6784 116.706L42.2891 99.9803Z" fill="#BB8E52"/>
<path d="M60.0208 101.866L48.7035 117.964L54.2355 129.533C54.2355 129.533 57.2542 123.749 61.7808 118.466C66.3088 113.185 63.0395 110.418 62.5368 108.406C62.0342 106.394 60.0208 101.866 60.0208 101.866Z" fill="#BB8E52"/>
</svg>
