<svg width="154" height="408" viewBox="0 0 154 408" fill="none" xmlns="http://www.w3.org/2000/svg">
<g opacity="0.330002">
<g opacity="0.330002">
<path opacity="0.330002" d="M139.591 404.446C139.591 406.41 111.99 408.001 77.9406 408.001C43.8912 408.001 16.2886 406.41 16.2886 404.446C16.2886 402.482 43.8912 400.89 77.9406 400.89C111.99 400.89 139.591 402.482 139.591 404.446Z" fill="#131313"/>
</g>
</g>
<path d="M10.8491 208.258C10.8491 208.258 13.9291 233.92 81.1664 235.203L82.4491 230.328L68.5918 211.85L32.1505 199.275L13.4158 203.638L10.8491 208.258Z" fill="#2D3541"/>
<path d="M111.706 203.894C111.706 203.894 115.298 205.692 116.068 199.532C116.839 193.372 116.582 176.692 114.786 176.434C112.99 176.178 107.856 178.23 107.856 178.23L111.706 203.894Z" fill="#FFA280"/>
<path d="M109.139 175.922C109.139 175.922 113.502 169.762 113.759 167.71C114.015 165.656 108.37 152.311 107.857 150.771C107.342 149.231 102.211 153.082 102.211 153.082L109.139 175.922Z" fill="#FFA280"/>
<path d="M65.2552 86.7418C65.2552 86.7418 65.6406 68.7765 76.8032 62.7458C87.9672 56.7152 97.4619 60.0512 102.981 62.8752C108.498 65.6978 122.355 74.1658 118.635 85.9712C114.914 97.7765 112.347 111.891 102.725 112.79C93.1006 113.687 65.2552 86.7418 65.2552 86.7418Z" fill="#3F4959"/>
<path d="M61.6629 133.834C61.6629 133.834 61.6629 116.896 79.1136 120.232C96.5656 123.568 100.414 125.364 101.44 136.656C102.468 147.948 105.803 161.036 107.343 166.939C108.883 172.842 120.944 202.611 107.086 212.876C93.2282 223.142 80.1402 223.398 77.8309 223.398C75.5216 223.398 28.3016 224.424 39.3362 193.628C50.3709 162.834 61.6629 133.834 61.6629 133.834Z" fill="#FF745F"/>
<path d="M72.185 359.67C72.185 359.67 76.8036 361.98 77.3183 363.262C77.8303 364.546 73.7236 371.732 71.4143 373.272C69.105 374.81 65.769 378.146 63.973 380.713C62.1756 383.28 57.2996 389.697 52.1663 384.05L62.1756 369.934L72.185 359.67Z" fill="#1A5674"/>
<path d="M53.4506 354.537C53.4506 354.537 58.5839 358.899 59.0959 361.209C59.6092 363.519 61.4066 363.776 61.4066 363.776L65.2559 361.209V357.104C65.2559 357.104 60.6359 353.509 58.0706 350.945L53.4506 354.537Z" fill="#FFD5B5"/>
<path d="M113.246 247.778L114.785 246.752C114.785 246.752 114.785 241.876 115.042 239.822C115.298 237.769 119.662 237 119.662 237L121.971 241.62L120.687 243.929C120.687 243.929 116.838 248.292 116.582 249.061C116.326 249.832 113.246 247.778 113.246 247.778Z" fill="#FFD5B5"/>
<path d="M26.2475 199.018C26.2475 199.018 20.0889 214.159 20.0889 223.398L73.7235 231.61L78.0875 221.859L26.2475 199.018Z" fill="#FFD5B5"/>
<path d="M68.0782 135.63L60.3795 149.231L65.2555 161.036L71.2355 158.736L78.6008 155.904L84.5022 139.479L82.4488 138.196C82.4488 138.196 77.0595 135.117 82.4488 122.285C82.4488 122.285 101.184 124.082 107.342 104.065C107.342 104.065 116.326 104.065 117.608 99.7018C118.892 95.3392 117.352 92.5165 109.14 94.8245L102.724 74.8085L97.3435 73.4458L82.4488 69.6752C82.4488 69.6752 78.4622 70.2592 74.4395 74.2392C71.9275 76.7258 69.3995 80.5365 67.8222 86.3565C67.8222 86.3565 62.6889 80.9672 60.8929 86.6125C59.0969 92.2592 64.2288 93.7992 64.2288 93.7992L65.2555 94.5685C65.2555 94.5685 64.4862 99.4445 63.7169 100.728C62.9449 102.011 60.1222 112.019 67.8222 115.613C75.5208 119.206 71.7995 119.719 77.6382 121.098C77.6382 121.098 75.1355 120.745 74.2368 120.201C74.2368 120.201 70.1955 124.403 68.0782 135.63Z" fill="#FFD5B5"/>
<path d="M65.2552 161.037L71.2352 158.735L78.6006 155.903L84.5032 139.479L82.4499 138.197C82.4499 138.197 77.0606 135.117 82.4499 122.285C82.4499 122.285 101.183 124.082 107.342 104.065C107.342 104.065 116.326 104.065 117.609 99.7021C118.893 95.3395 117.351 92.5155 109.139 94.8248L102.725 74.8088L97.3432 73.4461C97.3432 73.4461 104.047 114.443 80.7139 120.889C80.7139 120.889 74.4912 140.222 73.3806 146.666C72.2686 153.11 65.2552 161.037 65.2552 161.037Z" fill="#F1B89A"/>
<path d="M82.4492 69.6755C82.4492 69.6755 78.4625 70.2581 74.4385 74.2395C71.9265 76.7261 69.3999 80.5368 67.8212 86.3568L68.4639 87.2555C68.4639 87.2555 71.6705 77.3741 78.0879 75.7061C84.5025 74.0381 86.0425 75.1928 86.0425 75.1928L85.4012 70.3168L82.4492 69.6755Z" fill="#EDB08E"/>
<path d="M77.6382 121.098C77.6382 121.098 75.1355 120.745 74.2369 120.201C74.2369 120.201 70.1955 124.403 68.0782 135.63C68.0782 135.63 67.3729 142.879 69.4262 146.345C69.4262 146.345 71.7355 143.393 72.0555 142.751C72.3782 142.11 71.5435 125.493 77.6382 121.098Z" fill="#EDB08E"/>
<path d="M139.566 76.9164C139.566 76.9164 137.506 66.2737 137.772 62.4777C138.038 58.6831 136.736 55.6724 136.232 55.1417C135.352 54.2151 136.068 51.4097 137.46 52.9884C138.852 54.5671 139.101 57.8271 139.906 57.6231C140.712 57.4191 141.545 55.1244 142.324 52.7497C143.102 50.3751 143.396 47.9817 144.62 48.5524C145.657 49.0351 145.506 49.8311 144.698 52.7591C143.889 55.6871 142.977 58.0377 144.028 57.2497C145.078 56.4604 149.228 50.5031 149.437 50.1217C149.854 49.3577 151.368 49.4924 150.668 51.0417C149.969 52.5924 146.389 58.0951 146.532 58.4711C146.673 58.8457 149.664 55.0537 150.297 54.2591C150.929 53.4657 152.456 50.8884 153.214 51.6417C154.162 52.5817 152.72 53.9991 152.382 54.7057C152.044 55.4137 147.966 60.1964 148.582 60.6577C149.198 61.1177 152.694 58.3951 153.144 58.6164C153.593 58.8377 154.626 59.3044 152.992 60.6151C151.357 61.9271 147.786 64.2871 147.149 65.4991C146.51 66.7111 142.424 74.6377 141.982 77.0737L139.566 76.9164Z" fill="#FFD5B5"/>
<path d="M19.0613 217.239C19.0613 217.239 -41.2467 298.334 52.6813 356.847L59.8666 351.202C59.8666 351.202 26.6626 320.927 27.1413 281.118C27.1999 276.03 27.8119 270.785 29.1146 265.427C30.4159 260.07 32.4079 254.601 35.2293 249.061C35.2293 249.061 38.3093 248.547 39.3359 250.089C39.3359 250.089 70.1319 340.935 116.583 249.061L111.705 247.009C111.705 247.009 94.5119 271.646 83.2199 264.203C78.5106 261.099 76.5693 254.335 75.9053 247.503C74.9786 237.955 76.5466 228.274 76.5466 228.274C76.5466 228.274 40.1053 224.682 19.0613 217.239" fill="#23A17C"/>
<g opacity="0.330002">
<g opacity="0.330002">
<path opacity="0.330002" d="M75.905 247.504C74.9783 237.956 76.5463 228.274 76.5463 228.274C76.5463 228.274 40.105 224.682 19.061 217.24C19.061 217.24 41.157 228.444 53.601 232.888C66.0463 237.333 75.905 247.504 75.905 247.504Z" fill="#131313"/>
</g>
</g>
<g opacity="0.330002">
<g opacity="0.330002">
<path opacity="0.330002" d="M27.1407 281.118C27.2007 276.03 27.8127 270.785 29.114 265.426C30.4154 260.07 32.4074 254.6 35.2287 249.061L26.4914 247.11C26.4914 247.11 20.9354 265.11 25.602 279.333L27.1407 281.118Z" fill="#131313"/>
</g>
</g>
<path d="M118.379 229.044C118.379 229.044 120.944 223.141 123.767 224.168C126.591 225.195 132.494 226.991 135.06 231.353C137.627 235.717 141.988 246.496 141.988 247.521C141.988 248.548 141.219 251.115 141.219 251.115L134.546 243.929L127.104 233.151L118.379 229.044Z" fill="#1A5674"/>
<path d="M120.688 243.929C120.688 243.929 126.592 243.929 130.184 248.548C133.776 253.168 136.856 257.273 139.422 254.964C141.989 252.655 140.962 250.601 140.449 249.832C139.936 249.061 130.44 233.151 129.414 232.38C128.386 231.611 123.254 226.735 118.38 229.044C113.502 231.353 114.529 240.592 114.529 240.592C114.529 240.592 118.38 238.54 120.688 243.929Z" fill="white"/>
<path d="M58.0704 360.696C58.0704 360.696 61.9198 363.006 65.2558 357.104L63.2024 355.051C63.2024 355.051 69.3624 354.28 71.9291 357.36C74.4944 360.44 74.2371 361.466 72.1851 365.059C70.1318 368.652 65.2558 370.706 63.4598 374.042C61.6624 377.378 55.7611 386.616 50.1144 383.279C50.1144 383.279 47.8051 381.227 51.9104 376.864C56.0171 372.502 58.5838 364.032 58.0704 360.696Z" fill="white"/>
<path d="M37.7957 119.462C37.7957 119.462 28.557 92.2594 49.601 60.95L54.2197 62.746C54.2197 62.746 47.0357 87.6394 50.3717 115.355L37.7957 119.462Z" fill="#99E7C9"/>
<path d="M137.883 75.835C137.883 75.835 135.829 106.374 116.581 127.162L120.431 134.347L127.36 135.374C127.36 135.374 145.324 116.126 143.015 76.6044L137.883 75.835Z" fill="#99E7C9"/>
<path d="M50.3712 149.744C50.3712 149.744 36.7699 141.532 35.4859 119.719L51.6539 114.072C51.6539 114.072 53.1939 129.471 61.9192 132.294L68.0779 134.347C68.0779 134.347 67.8219 140.506 68.0779 142.046C68.0779 142.046 63.4592 150.515 66.5392 157.956C66.5392 157.956 78.8566 151.542 83.2206 138.71C83.2206 138.71 90.9192 140.763 95.7939 138.967C95.7939 138.967 107.086 136.4 115.555 125.878C115.555 125.878 120.945 133.063 129.157 135.116C129.157 135.116 118.122 157.956 91.4326 163.859C91.4326 163.859 92.2019 202.098 81.1672 235.203C81.1672 235.203 72.4952 225.087 57.9672 217.028C45.8112 210.284 29.5566 204.983 10.8486 208.258C10.8486 208.258 17.0099 190.806 50.3712 149.744" fill="#566278"/>
<g opacity="0.330002">
<g opacity="0.330002">
<path opacity="0.330002" d="M91.4324 163.86C91.4324 163.86 92.2017 202.097 81.1671 235.202C81.1671 235.202 72.4951 225.086 57.9671 217.028C57.9671 217.028 85.7057 195.72 91.4324 163.86" fill="#131313"/>
</g>
</g>
<path d="M69.1577 131.194C69.1577 131.194 64.4857 132.551 61.919 132.294C59.3523 132.038 61.1497 150.002 64.2297 154.878L65.5123 152.311C65.5123 152.311 65.931 146.036 68.2417 142.444C68.2417 142.444 67.875 135.812 69.1577 131.194" fill="#3F4959"/>
<path d="M83.9896 135.373C83.9896 135.373 81.423 144.612 77.831 147.948C77.831 147.948 78.3443 152.824 80.9096 157.956C80.9096 157.956 86.5563 146.152 88.8656 144.612C88.8656 144.612 88.6096 139.223 83.9896 135.373" fill="#3F4959"/>
<path d="M62.9454 131.78C62.9454 131.78 59.6094 120.488 52.6814 128.7C45.7507 136.914 42.6721 159.24 42.6721 159.24L39.8494 163.346C39.8494 163.346 29.8401 146.408 41.9027 128.958C53.9641 111.507 62.9454 111.507 64.7427 124.082C64.7427 124.082 63.2014 129.727 62.9454 131.78Z" fill="#FFA280"/>
<path d="M92.2019 139.223C92.2019 139.223 103.75 133.32 99.1312 157.7C94.5112 182.08 90.9192 178.231 90.9192 178.231L90.6619 184.647C90.6619 184.647 104.007 187.983 107.857 150.771C111.706 113.559 90.1486 139.223 90.1486 139.223H92.2019Z" fill="#FFA280"/>
<path d="M82.7071 64.9281C82.7071 64.9281 80.3098 77.4921 88.6778 86.9308C92.0871 90.7788 97.2858 94.1055 105.162 95.8521L104.904 93.2855C104.904 93.2855 107.6 94.9548 108.626 94.9548C108.626 94.9548 112.732 89.5655 113.246 86.6135C113.759 83.6615 112.347 73.2681 104.392 69.4188C96.4365 65.5695 82.7071 64.9281 82.7071 64.9281Z" fill="#3F4959"/>
<path d="M82.7071 64.9281C82.7071 64.9281 80.3098 77.4921 88.6778 86.9308C92.0871 90.7788 97.2858 94.1055 105.162 95.8521C105.162 95.8521 84.7591 89.8215 85.5298 65.3135C85.5298 65.3135 86.1711 63.6455 84.3751 63.5161C82.5418 63.3855 82.7071 64.9281 82.7071 64.9281Z" fill="#798293"/>
<path d="M94.1265 73.9099C91.8838 76.6006 93.8705 86.9979 104.905 93.2859C104.905 93.2859 98.2078 83.5819 97.0785 76.6046C96.9185 75.6179 95.4105 72.3699 94.1265 73.9099Z" fill="#798293"/>
<path d="M108.626 94.9541C108.626 94.9541 106.317 94.3128 106.317 90.4621C106.317 86.6128 108.113 85.9715 108.241 87.8968C108.37 89.8208 108.626 94.9541 108.626 94.9541Z" fill="#798293"/>
<path d="M109.652 98.9313C109.652 98.9313 112.343 97.1833 112.732 98.546C113.246 100.343 111.962 100.471 111.45 100.471C111.45 100.471 110.551 100.086 109.652 98.9313Z" fill="#C5947B"/>
<path d="M65.8972 91.2328C65.8972 91.2328 61.0212 89.8208 64.6132 88.1528C64.6132 88.1528 65.8972 88.4101 66.4105 89.5648L65.8972 91.2328Z" fill="#C5947B"/>
<path d="M80.6538 90.9763C80.6538 90.9763 79.6258 97.6483 78.3445 99.4456C77.0605 101.242 74.2378 103.936 77.3178 104.578C80.3978 105.219 82.0658 105.862 82.3218 104.835C82.5778 103.808 83.7338 95.467 84.3751 93.671C85.0151 91.8736 85.9138 89.051 83.0911 88.667C80.2685 88.2816 80.6538 90.9763 80.6538 90.9763Z" fill="#EDB08E"/>
<path d="M69.2332 91.3611C69.2332 91.3611 72.9545 88.9224 75.7772 92.2597" stroke="#A67F6A" stroke-miterlimit="10" stroke-linecap="round" stroke-linejoin="round"/>
<path d="M91.1759 95.4672C91.1759 95.4672 95.4106 93.4139 99.0026 98.1619" stroke="#A67F6A" stroke-miterlimit="10" stroke-linecap="round" stroke-linejoin="round"/>
<path d="M70.2592 85.9717C70.1859 85.1077 70.4859 84.3757 70.9072 83.7357C71.3446 83.1064 71.9672 82.5877 72.7099 82.2637C74.1792 81.5864 76.2179 81.9237 77.0606 83.4051C76.2459 83.7357 75.6712 83.8744 75.1592 84.1197L73.7632 84.7131C72.8299 85.0971 71.8672 85.5491 70.2592 85.9717Z" fill="#566278"/>
<path d="M73.9806 108.812C73.9806 108.812 78.2153 112.276 88.7366 109.068" stroke="#E0674B" stroke-miterlimit="10" stroke-linecap="round" stroke-linejoin="round"/>
<path d="M78.6003 113.816C78.6003 113.816 78.087 115.356 78.6003 115.613C79.1137 115.869 82.5777 116.125 84.119 115.484C84.119 115.484 85.1443 113.688 83.4763 113.688C81.8083 113.688 78.9857 114.329 78.6003 113.816Z" fill="#EDB08E"/>
<path d="M75.3191 98.4047C75.0991 99.5167 73.2031 100.081 71.0818 99.662C68.9604 99.2447 67.4191 98.0047 67.6391 96.8913C67.8578 95.7793 69.7551 95.2167 71.8751 95.634C73.9964 96.0513 75.5378 97.2927 75.3191 98.4047Z" fill="#FFA280"/>
<path d="M97.7735 102.768C97.5549 103.88 95.6575 104.443 93.5375 104.025C91.4162 103.608 89.8749 102.367 90.0935 101.255C90.3135 100.143 92.2095 99.5787 94.3309 99.9973C96.4522 100.415 97.9935 101.656 97.7735 102.768Z" fill="#FFA280"/>
<path d="M24.0664 52.0961L30.7384 56.7161L84.2464 43.1148L80.5251 6.4161L29.9691 17.9641L29.4558 51.1988L25.7344 48.2468L29.4558 13.0881L16.6238 16.2961L24.0664 52.0961Z" fill="#E0674B"/>
<path d="M25.991 15.1409L27.2736 49.2729L29.199 50.8129L29.9683 17.9636L71.0296 8.46895L70.131 3.20761L25.991 15.1409Z" fill="#E7E7E7"/>
<path d="M20.6017 11.9333L25.735 48.2466L27.2737 49.2733L25.991 15.1413L63.7163 4.74797L63.2017 -2.75807e-05L20.6017 11.9333Z" fill="#CDCDCD"/>
<path d="M50.6277 61.2068C50.6277 61.2068 51.269 54.5348 49.473 51.9681L60.1224 49.4014C60.1224 49.4014 60.2517 50.4281 61.277 49.6588C62.305 48.8881 64.7424 46.1934 65.897 46.0654C67.0517 45.9374 68.0784 47.7334 65.641 49.5294C63.2024 51.3268 54.349 59.1534 53.5784 62.3614L50.6277 61.2068Z" fill="#FFD5B5"/>
</svg>
