<svg width="349" height="403" viewBox="0 0 349 403" fill="none" xmlns="http://www.w3.org/2000/svg">
<path d="M344.273 395.216C344.273 399.408 267.205 402.806 172.137 402.806C77.0693 402.806 0 399.408 0 395.216C0 391.024 77.0693 387.625 172.137 387.625C267.205 387.625 344.273 391.024 344.273 395.216Z" fill="#DAE5EF"/>
<path d="M207.837 86.3097C207.837 86.3097 208.637 101.764 217.541 101.27C217.541 101.27 221.676 100.3 222.594 97.7643C223.514 95.2297 216.757 93.283 216.757 93.283L212.35 89.607" fill="#A0A7B5"/>
<path d="M237.739 366.655L239.411 385.791C242.253 386.194 248.325 386.7 251.529 386.194C253.851 385.818 255.706 385.22 257.121 384.611C259.455 383.586 260.571 382.548 260.571 382.548L260.937 365.682L241.749 366.487L237.739 366.655Z" fill="#FFBEAE"/>
<path d="M238.894 366.914C245.562 368.574 257.045 368.925 257.045 368.925L257.121 384.61C259.455 383.586 260.571 382.548 260.571 382.548L260.937 365.682L241.749 366.486L238.894 366.914Z" fill="#FFB1A9"/>
<path d="M260.571 382.552C260.571 382.552 248.945 386.854 239.056 383.271C239.056 383.271 218.393 392.023 217.369 393.986C216.347 395.948 259.852 395.016 261.217 394.846C262.581 394.675 262.683 386.494 260.571 382.552Z" fill="#322C74"/>
<path d="M311.041 363.986L317.905 382.05C320.765 381.812 326.797 380.958 329.81 379.754C331.991 378.872 333.667 377.878 334.911 376.97C336.961 375.453 337.818 374.193 337.818 374.193L333.445 357.892L314.913 362.933L311.041 363.986Z" fill="#FFBEAE"/>
<path d="M312.224 363.983C319.095 364.123 330.368 361.918 330.368 361.918L334.911 376.97C336.96 375.452 337.819 374.192 337.819 374.192L333.444 357.891L314.912 362.932L312.224 363.983Z" fill="#FFB1A9"/>
<path d="M337.818 374.197C337.818 374.197 327.437 380.971 316.998 379.671C316.998 379.671 298.793 392.789 298.23 394.929C297.668 397.071 339.882 386.511 341.176 386.041C342.469 385.572 340.753 377.572 337.818 374.197Z" fill="#322C74"/>
<path d="M282.649 187.835C282.377 189.599 282.065 191.65 281.702 193.907C281.118 197.643 280.417 201.963 279.64 206.634C278.549 213.328 277.304 220.736 276.058 228.171C275.02 234.424 273.957 240.691 272.97 246.555C272.23 250.888 271.53 255.002 270.894 258.738C269.052 269.584 267.768 277.108 267.768 277.108L260.93 365.682C250.37 368.704 237.733 366.655 237.733 366.655C237.733 366.655 228.6 290.536 228.6 274.488C228.6 262.824 231.104 218.57 232.478 195.178C232.596 193.18 232.7 191.338 232.804 189.678C233.141 183.995 233.348 180.479 233.348 180.479L279.665 187.394L282.649 187.835Z" fill="#322C74"/>
<path d="M270.544 211.941C270.544 211.941 261.95 256.053 258.056 278.107C254.164 300.163 251.678 366.493 251.678 366.493" stroke="#1B1A56" stroke-width="0.487" stroke-miterlimit="10" stroke-linecap="round"/>
<g opacity="0.300003">
<g opacity="0.300003">
<path opacity="0.300003" d="M276.058 228.171C274.242 239.056 272.386 249.98 270.894 258.738L268.814 220.103L268.157 209.67C268.157 209.67 270.7 213.887 271.686 217.455C272.244 219.518 274.164 223.863 276.058 228.171Z" fill="#242366"/>
</g>
</g>
<path d="M333.442 357.885C324.425 363.735 311.037 363.982 311.037 363.982L282.843 293.559C279.198 284.595 276.719 275.202 275.462 265.601L272.97 246.555L267.923 207.867L266.653 198.162L281.702 193.907L314.227 184.695L314.409 194.206L315.953 274.489L333.442 357.885Z" fill="#322C74"/>
<path d="M298.589 191.831C298.589 191.831 296.985 240.483 301.28 271.946C305.574 303.407 324.429 360.979 324.429 360.979" stroke="#1B1A56" stroke-width="0.487" stroke-miterlimit="10"/>
<g opacity="0.300003">
<g opacity="0.300003">
<path opacity="0.300003" d="M314.409 194.205C311.828 195.165 307.325 196.943 303.653 198.967C300.216 200.861 290.524 204.663 279.639 206.635C275.812 207.323 271.829 207.789 267.924 207.867C265.199 207.919 262.513 207.776 259.945 207.4C246.296 205.376 235.879 197.889 232.479 195.179C232.596 193.18 232.7 191.339 232.803 189.677C234.672 189.652 236.787 189.639 237.033 189.729C237.461 189.899 258.972 189.132 259.737 189.132C260.036 189.132 268.988 188.341 279.665 187.395L282.649 187.835C282.376 189.6 282.065 191.649 281.701 193.907L314.228 184.696L314.409 194.205Z" fill="#242366"/>
</g>
</g>
<path d="M242.651 94.5654C242.651 94.5654 237.629 95.7454 230.312 96.9654C229.949 97.0307 229.585 97.0827 229.209 97.1467C214.328 99.5867 191.105 102.025 180.752 95.8761L180.739 95.8894C179.117 95.0721 176.627 93.9814 174.745 91.3614C174.641 91.2054 174.524 91.0494 174.42 90.8814C173.707 89.7774 172.773 87.9227 172.267 86.6121C172.255 86.6001 172.241 86.5867 172.241 86.5734C166.416 71.8347 168.492 47.4307 169.529 38.5174C169.737 36.7147 169.348 34.8987 168.44 33.3161C165.936 28.9307 163.172 18.5254 164.508 17.4347C166.117 16.0987 168.336 22.1454 168.972 23.9481C168.271 21.6387 165.365 11.7401 166.817 11.0267C168.413 10.2347 172.099 22.7547 172.293 23.4027C172.137 22.7161 168.245 6.2774 170.619 5.96673C172.903 5.65473 175.887 20.6014 176.199 22.2227C175.925 20.7174 173.797 8.40539 176.043 8.88539C178.417 9.41739 179.337 18.2787 180.168 21.5867C180.22 21.8467 180.869 22.4694 181.141 21.3147C181.531 19.5894 181.92 13.4134 183.801 13.8281C184.631 14.0107 184.852 16.5014 185.085 19.4067C185.332 22.7281 185.461 26.7374 184.54 30.3307C184.241 31.5121 183.723 32.7187 182.919 33.6654C181.569 35.2361 181.103 37.3627 181.4 39.4134C182.607 47.9494 189.717 70.0441 191.248 74.3521C194.66 73.5347 207.141 70.0707 216.184 67.5534C225.629 64.9334 238.019 62.0401 238.019 62.0401L242.651 94.5654Z" fill="#F4A392"/>
<path d="M230.87 93.7999C230.87 93.7999 230.701 95.1226 230.313 96.9653C229.949 97.0306 229.586 97.0826 229.21 97.1466C214.329 99.5866 191.105 102.025 180.751 95.8759L180.739 95.8893C179.117 95.0719 176.626 93.9813 174.745 91.3613C174.745 91.3613 187.731 100.585 217.351 95.2786C217.351 95.2786 220.514 90.2293 216.215 72.7946C212.642 58.2986 230.87 93.7999 230.87 93.7999Z" fill="#F29788"/>
<path d="M342.913 125.378C339.098 130.62 332.313 135.784 328.978 138.145C327.773 139.001 327.02 139.494 327.02 139.494L313.073 127.726L324.269 110.64L327.993 104.945C330.146 107.656 333.196 111.781 335.958 115.622C335.958 115.622 336.01 115.674 336.089 115.777C339.748 120.85 342.913 125.378 342.913 125.378Z" fill="#F4A392"/>
<path d="M317.977 185.279C317.977 185.279 316.797 186.031 314.708 187.213C306.118 192.103 282.078 204.403 261.462 202.314C235.838 199.719 228.6 190.43 228.6 190.43L231.169 100.507L217.546 101.273C218.285 100.923 218.896 100.274 219.388 99.3913C221.101 96.4726 221.516 91.0886 220.841 86.3139C218.649 70.6939 212.356 68.3579 212.356 68.3579C212.356 68.3579 231.025 62.7926 237.941 61.4686C247.866 59.5753 293.976 69.4873 299.489 72.7299C299.904 72.9766 300.293 73.3526 300.657 73.8073L307.001 123.211C308 132.086 310.257 145.151 312.437 157.009C315.253 172.123 317.977 185.279 317.977 185.279Z" fill="#C7CDDB"/>
<path d="M312.437 157.009C306.444 138.106 301.993 118.865 301.799 118.009L307.001 123.212C308 132.086 310.257 145.15 312.437 157.009Z" fill="#BAC1D1"/>
<path d="M331.927 104.514C324.877 96.6162 305.571 78.4269 300.653 73.8135L306.998 123.215L313.358 128.004C331.927 120.583 331.927 104.514 331.927 104.514Z" fill="#C7CDDB"/>
<path d="M252.168 22.2978C252.168 22.2978 250.764 23.7018 250.413 27.4458C250.062 31.1898 253.221 33.8805 253.221 33.8805L257.081 26.0418" fill="#FFCF9F"/>
<path d="M280.768 70.7322C283.324 75.7268 278.212 81.0988 273.516 82.3055C268.624 83.5762 256.468 84.8215 251.252 79.9828C250.876 79.6455 250.538 79.2695 250.24 78.8535C247.957 75.6748 248.073 71.9002 249.384 68.9415C250.473 66.5028 253.094 64.7775 255.793 64.1802L255.87 62.7788C252.938 61.7668 250.136 59.8855 248.242 56.5642C246.27 53.1268 246.192 49.7788 246.814 46.9775C247.061 45.9135 247.412 44.9268 247.788 44.0575C248.306 42.8508 248.826 41.6442 249.318 40.4255C250.058 38.6082 250.733 36.7668 251.238 34.8855C255.17 20.4575 268.612 16.1508 277.953 22.6242C284.024 26.8148 286.204 38.8162 280.222 49.7015C279.821 50.4148 279.444 51.0762 279.081 51.7122C277.55 54.6708 275.098 60.3015 276.162 64.6082C276.668 65.9708 277.537 67.1775 278.666 68.1375C278.705 68.1762 278.744 68.2028 278.782 68.2548C279.678 69.0455 280.326 69.8762 280.768 70.7188V70.7322Z" fill="#F4A392"/>
<path d="M251.817 14.225C251.817 14.225 249.097 24.5796 255.678 29.4343C259.559 32.2983 273.11 32.3596 274.631 34.465C276.151 36.5716 272.495 44.5276 273.315 45.1116C274.134 45.697 277.237 38.5516 279.639 40.929C281.519 42.7863 276.814 57.1076 276.814 57.1076C276.814 57.1076 280.159 55.0276 284.283 47.393C288.315 39.9303 295.925 26.7436 285.395 23.585C280.51 10.3636 255.911 16.2143 251.817 14.225Z" fill="#FFCF9F"/>
<path d="M255.871 62.7704C255.871 62.7704 262.785 63.8904 267.085 61.521C267.085 61.521 261.697 67.0677 255.673 67.5757L255.871 62.7704Z" fill="#F29788"/>
<path d="M250.279 48.3587C250.279 48.3587 254.639 51.5681 260.054 52.4707C260.054 52.4707 258.251 57.7481 253.03 55.6454C247.655 53.4814 250.279 48.3587 250.279 48.3587Z" fill="white"/>
<path d="M262.509 41.8955C261.953 43.5102 262.142 45.0409 262.933 45.3129C263.723 45.5849 264.815 44.4955 265.371 42.8809C265.927 41.2662 265.737 39.7355 264.947 39.4635C264.157 39.1915 263.065 40.2809 262.509 41.8955Z" fill="white"/>
<path d="M262.433 42.4801C262.024 43.6681 262.164 44.7948 262.745 44.9948C263.327 45.1948 264.131 44.3934 264.54 43.2054C264.948 42.0161 264.809 40.8908 264.227 40.6908C263.645 40.4908 262.843 41.2921 262.433 42.4801Z" fill="#A54B42"/>
<path d="M265.695 36.0103C266.828 36.2743 268.748 37.337 269.244 39.0237C269.742 40.7117 264.58 37.0983 264.364 36.577C264.147 36.0557 264.81 35.8037 265.695 36.0103Z" fill="#FFCF9F"/>
<path d="M252.581 37.6553C252.025 39.27 252.215 40.8006 253.005 41.0726C253.796 41.3446 254.888 40.2553 255.444 38.6406C256 37.026 255.809 35.4953 255.02 35.2233C254.229 34.9513 253.137 36.0406 252.581 37.6553Z" fill="white"/>
<path d="M252.506 38.2399C252.096 39.4279 252.236 40.5546 252.818 40.7546C253.399 40.9546 254.203 40.1533 254.612 38.9653C255.02 37.7759 254.882 36.6506 254.299 36.4506C253.718 36.2506 252.915 37.0519 252.506 38.2399Z" fill="#A54B42"/>
<path d="M253.955 31.6566C255.118 31.6086 257.251 32.1206 258.179 33.6152C259.109 35.1086 253.171 33.0019 252.823 32.5579C252.475 32.1139 253.047 31.6939 253.955 31.6566Z" fill="#FFCF9F"/>
<path d="M268.433 50.7996C267.773 52.6476 265.884 53.6623 264.213 53.065C262.544 52.469 261.725 50.4863 262.386 48.6383C263.046 46.7903 264.936 45.7756 266.606 46.373C268.276 46.969 269.093 48.9516 268.433 50.7996Z" fill="#F79484"/>
<path d="M251.522 44.9437C250.862 46.797 248.981 47.8077 247.31 47.2183C247.142 47.1623 246.973 47.077 246.819 46.9797C247.058 45.913 247.409 44.929 247.787 44.0597C248.307 42.8517 248.826 41.6437 249.318 40.4223C249.445 40.437 249.57 40.4797 249.697 40.521C251.367 41.125 252.182 43.105 251.522 44.9437Z" fill="#F79484"/>
<path d="M254.847 44.2346C254.847 44.2346 253.721 45.0826 253.559 45.8439C253.396 46.6039 254.332 47.7146 255.385 48.0959C255.385 48.0959 255.144 47.9319 254.864 47.6479C254.084 46.8599 253.963 45.6253 254.539 44.6786C254.627 44.5333 254.729 44.3826 254.847 44.2346Z" fill="#E58373"/>
<path d="M278.744 40.4565C278.744 40.4565 284.371 40.1538 283.143 46.0965C282.054 51.3658 277.834 53.0978 275.332 50.9912C272.832 48.8858 276.276 40.4952 278.744 40.4565Z" fill="#F4A392"/>
<path d="M278.415 44.2487C278.062 45.0701 278.851 46.2714 278.274 46.9501C277.695 47.6287 277.072 47.3981 276.842 48.0207C276.611 48.6434 277.646 49.2767 279.288 48.2741C280.471 47.5527 280.698 46.0261 280.583 44.9394C280.435 43.5474 278.971 42.9554 278.415 44.2487Z" fill="#E58373"/>
<path d="M347.026 146.461C344.82 151.884 338.956 158.54 332.948 164.392C326.93 170.242 320.779 175.289 317.976 177.521C315.486 179.545 316.031 181.556 315.148 183.618C313.631 187.121 311.01 189.962 309.506 189.716C308.014 189.482 307.922 188.418 307.922 188.418C307.922 188.418 306.586 188.704 305.859 187.977C305.132 187.252 305.288 186.849 305.288 186.849C305.288 186.849 304.238 186.836 303.55 186.226C302.655 185.448 302.979 184.293 302.979 184.293C302.902 184.293 301.24 184.28 300.683 183.1C300.151 181.945 301.331 180.336 301.448 180.168C300.475 180.634 298.763 180.854 298.594 179.934C298.438 179.025 301.967 174.68 304.328 174.264C305.924 173.978 307.04 173.421 308.376 172.332C308.922 171.877 309.544 171.125 310.024 170.476C310.504 169.84 310.854 169.308 310.854 169.308C312.943 165.273 315.888 159.798 318.691 154.634C318.691 154.622 318.703 154.622 318.703 154.609C323.036 146.669 327.02 139.494 327.02 139.494L327.915 137.12L335.959 115.622C335.959 115.622 336.011 115.674 336.088 115.778C337.646 117.556 351.93 134.396 347.026 146.461Z" fill="#F4A392"/>
<path d="M304.082 178.961C302.966 179.688 301.279 180.414 301.279 180.414L301.461 180.154C301.461 180.154 302.279 179.765 303.693 178.676C304.471 178.078 305.678 176.769 305.977 177.17C306.287 177.586 305.133 178.273 304.082 178.961Z" fill="#F29788"/>
<path d="M328.979 138.145L329.978 139.118C329.978 139.118 322.518 148.797 318.703 154.609C323.036 146.669 327.02 139.494 327.02 139.494L313.384 127.986C324.97 123.354 329.316 115.35 330.938 109.992C330.691 111.004 327.37 123.393 319.599 129.076L327.915 137.12L328.979 138.145Z" fill="#F29788"/>
<path d="M273.22 82.6338C267.923 84.0938 256.468 84.8218 251.252 79.9831H251.266C251.266 79.9831 258.063 83.6031 268.443 82.1498C278.808 80.6831 280.872 74.7018 280.768 70.7324C283.458 75.9978 277.895 81.3458 273.22 82.6338Z" fill="#F29788"/>
<path d="M231.324 97.9517L231.168 100.508L217.546 101.273C218.286 100.922 218.895 100.274 219.388 99.3917C221.698 99.1837 228.366 98.5357 231.324 97.9517Z" fill="#BAC1D1"/>
<path d="M271.514 103.689H287.73C288.645 103.689 289.401 104.403 289.447 105.316C289.607 108.408 289.887 115.107 289.521 118.291C289.034 122.507 284.005 127.508 280.599 128.411C277.194 129.313 271.355 120.717 270.382 117.636C269.617 115.211 269.955 107.96 270.135 104.985C270.179 104.256 270.783 103.689 271.514 103.689Z" fill="#AAB2C1"/>
<path d="M99.7814 366.655L97.0961 385.791C94.2548 386.194 88.1828 386.7 84.9788 386.194C82.6561 385.818 80.8001 385.22 79.3868 384.611C77.0508 383.586 75.9348 382.548 75.9348 382.548L76.5841 365.682L95.7721 366.487L99.7814 366.655Z" fill="#FFBEAE"/>
<path d="M98.6268 366.914C91.9588 368.574 80.4761 368.925 80.4761 368.925L79.3868 384.61C77.0508 383.586 75.9348 382.548 75.9348 382.548L76.5841 365.682L95.7721 366.486L98.6268 366.914Z" fill="#FFB1A9"/>
<path d="M112.765 184.587C112.765 184.587 115.667 189.885 104.478 193.129C93.2874 196.371 91.8288 177.398 91.8288 177.398H102.466L111.127 181.127L112.765 184.587Z" fill="#4185C9"/>
<path d="M42.203 367.952L38.5057 383.69C34.6524 384.235 29.0604 385.376 25.0124 384.896C22.535 384.598 20.523 383.846 19.187 383.196C17.9804 382.626 17.3057 382.12 17.3057 382.12L18.7204 365.682L35.5857 367.316L42.203 367.952Z" fill="#FFBEAE"/>
<path d="M39.9326 368.173C32.5633 369.21 20.9513 368.316 20.9513 368.316L19.1873 383.197C17.9806 382.626 17.306 382.12 17.306 382.12L18.7206 365.682L35.586 367.317L39.9326 368.173Z" fill="#FFB1A9"/>
<path d="M17.3102 382.12C17.3102 382.12 28.9356 386.421 38.8249 382.838C38.8249 382.838 59.4876 391.59 60.5116 393.553C61.5342 395.516 18.0289 394.584 16.6636 394.413C15.2996 394.242 15.1982 386.061 17.3102 382.12Z" fill="#173751"/>
<path d="M75.0661 185.889C75.0661 185.889 74.7421 189.197 74.1834 194.673C73.2621 203.818 71.6794 218.998 69.8768 234.865C69.1634 241.158 68.4101 247.554 67.6581 253.73C67.2034 257.376 66.7621 260.944 66.3088 264.356C65.0634 273.982 63.8301 282.441 62.7408 288.162C57.9928 313.241 42.2034 367.953 42.2034 367.953C29.7994 369.496 18.7208 365.682 18.7208 365.682C18.7208 365.682 20.7314 332.028 26.4141 287.942C25.9074 258.102 23.3781 211.837 22.3274 193.634C22.1581 190.793 22.0421 188.64 21.9501 187.329C21.8994 186.396 21.8728 185.889 21.8728 185.889H75.0661Z" fill="#7E96BA"/>
<path d="M60.5289 213.252C60.5289 213.252 57.7182 263.296 53.2049 287.081C48.6902 310.866 37.0129 366.654 37.0129 366.654" stroke="#657996" stroke-width="0.487" stroke-miterlimit="10" stroke-linecap="round" stroke-linejoin="round"/>
<g opacity="0.199997">
<g opacity="0.199997">
<path opacity="0.199997" d="M69.8765 234.866C68.7472 244.868 67.5152 255.156 66.3085 264.355C61.4698 244.336 54.2552 209.294 54.0098 208.087L69.8765 234.866Z" fill="#6883AA"/>
</g>
</g>
<path d="M111.795 279.509C109.889 321.246 99.782 366.656 99.782 366.656C88.9873 369.25 76.5846 365.682 76.5846 365.682C76.5846 365.682 77.1806 300.241 76.0006 284.504C73.8206 276.032 70.7713 264.861 67.658 253.73C61.846 233.01 55.7873 212.421 54.5926 209.566C52.9846 205.7 51.778 201.744 50.8566 198.045C49.6886 193.324 49.002 189.016 48.6126 185.889C48.5473 185.37 48.4953 184.89 48.43 184.436C48.1846 182.101 48.106 180.7 48.106 180.7L106.489 167.077C106.801 169.412 107.138 173.006 107.462 177.494C107.695 180.634 107.929 184.229 108.175 188.146C109.849 216.118 111.471 260.813 111.795 279.509Z" fill="#7E96BA"/>
<g opacity="0.199997">
<g opacity="0.199997">
<path opacity="0.199997" d="M108.176 188.146C101.325 188.588 87.8716 191.961 74.1836 194.672C66.0489 196.281 57.8236 197.656 50.8569 198.045C49.9222 198.097 49.0009 198.136 48.1062 198.149C33.5889 198.396 25.5449 195.294 22.3276 193.634C22.1582 190.793 22.0422 188.64 21.9502 187.329L24.0916 185.889L27.9316 183.294L48.4302 184.436L53.2049 184.696L107.462 177.494C107.696 180.634 107.929 184.228 108.176 188.146Z" fill="#6883AA"/>
</g>
</g>
<path d="M106.424 184.695C106.424 184.695 107.313 209.157 96.7601 213.251" stroke="#657996" stroke-width="0.487" stroke-miterlimit="10" stroke-linecap="round" stroke-linejoin="round"/>
<path d="M93.8826 183.29C93.8826 183.29 100.308 245.937 101.42 277.105C102.532 308.273 94.748 365.682 94.748 365.682" stroke="#657996" stroke-width="0.487" stroke-miterlimit="10" stroke-linecap="round" stroke-linejoin="round"/>
<path d="M188.757 84.0047C188.757 84.0181 188.743 84.0301 188.743 84.0567C188.549 85.4447 188.277 86.7807 187.901 88.0394C184.047 101.195 152.91 98.1727 134.526 95.1621C126.625 93.8781 121.085 92.5807 121.085 92.5807L125.794 59.4834C125.794 59.4834 135.083 62.3128 144.373 65.4394C153.169 68.3968 164.482 71.6541 167.894 72.4714C168.374 67.9301 169.711 48.8448 168.906 40.2568C168.711 38.1941 167.765 36.2341 166.091 35.0154C165.093 34.2888 164.314 33.2381 163.743 32.1474C162.017 28.8661 161.213 24.9474 160.681 21.6514C160.227 18.7714 159.863 16.2941 160.629 15.9301C162.367 15.0874 164.171 21.0034 164.962 22.5994C165.494 23.6501 165.974 22.8968 165.974 22.6381C166.013 19.2261 164.846 10.3901 167.038 9.32609C169.101 8.34076 169.893 20.8088 169.97 22.3261C169.906 20.6794 169.334 5.44742 171.631 5.22742C174.018 4.98075 174.045 21.8728 174.045 22.5728C174.083 21.8981 174.771 8.85942 176.497 9.26209C178.118 9.62475 177.521 20.4581 177.391 22.5088C177.547 20.8741 178.299 14.0101 180.233 14.9568C181.79 15.7101 181.517 26.4781 180.09 31.3181C179.585 33.0688 179.623 34.9248 180.246 36.6368C183.321 45.0701 191.001 68.3194 188.757 84.0047Z" fill="#FFBEAE"/>
<path d="M188.744 84.0565C188.549 85.4445 188.277 86.7805 187.901 88.0392C184.048 101.195 152.909 98.1725 134.525 95.1618C135.512 89.4405 139.236 76.9205 139.728 75.1698C140.26 73.2232 144.917 65.9832 144.917 65.9832L153.676 68.4232C153.676 68.4232 156.656 77.9712 151.792 92.7872C151.792 92.7872 166.961 95.2378 176.158 93.8778C184.857 92.5925 188.108 86.9232 188.744 84.0565Z" fill="#FFB1A9"/>
<path d="M42.203 113.442L27.931 159.565C27.931 159.565 26.6337 157.385 24.935 154.206C21.7044 148.122 17.0204 138.34 17.2284 133.124C17.4617 127.298 24.1697 116.738 27.7244 111.536C29.0084 109.654 29.8777 108.473 29.8777 108.473L30.423 108.694L42.203 113.442Z" fill="#FFBEAE"/>
<path d="M42.203 113.442L27.931 159.565C27.931 159.565 26.6337 157.385 24.935 154.206C28.191 136.938 33.6657 118.308 33.6657 118.308C30.955 116.426 27.7244 111.536 27.7244 111.536L30.423 108.694L42.203 113.442Z" fill="#FFB1A9"/>
<path d="M57.5253 73.4569L54.1 89.2329C54.1 89.2329 50.208 122.096 42.2026 119.501C41.7493 119.358 41.2946 119.204 40.8533 119.034C38.5706 118.178 36.3773 117.089 34.432 115.973C30.008 113.456 26.8546 110.848 26.8546 110.848C33.6666 101.065 56.7986 74.2875 57.5253 73.4569Z" fill="#5599E8"/>
<path d="M40.8538 119.034C38.5698 118.178 36.3778 117.088 34.4312 115.973C36.9485 111.212 44.7592 96.8104 51.4405 88.3637C57.3832 80.8784 46.8992 105.36 40.8538 119.034Z" fill="#498FC9"/>
<path d="M128.492 59.3776C125.353 58.3722 122.111 57.7776 118.817 57.6242C107.409 57.0909 79.8973 57.2509 62.1 69.3402C39.1787 84.9082 19 190.214 19 190.214C19 190.214 35.2867 198.215 61.0187 193.458C86.7507 188.7 106.469 179.804 113.243 185.859C113.243 185.859 112.18 171.658 113.996 155.616C116.517 133.335 121.919 105.008 122.861 96.5856C122.861 96.5856 135.619 99.6122 145.565 99.6122C145.565 99.6122 156.528 83.6656 153.825 68.4216C144.249 64.5536 134.121 61.1789 128.492 59.3776Z" fill="#5599E8"/>
<path d="M117.024 36.7925C116.946 37.4672 116.324 37.8298 115.584 38.0125C115.142 41.8658 114.26 45.3298 113.041 47.7552C112.444 48.9485 111.769 49.8965 111.017 50.5058C106.904 53.8792 102.402 54.2552 98.445 53.4645C92.3077 52.2445 87.5077 48.2232 87.5077 48.2232C80.0477 43.0325 74.4437 24.1432 81.229 13.7112C88.0144 3.29384 102.35 4.47384 110.406 13.0245C114.26 17.1245 115.894 24.8178 115.908 32.2392C116.426 33.5618 117.166 35.6632 117.024 36.7925Z" fill="#FFBEAE"/>
<path d="M113.041 47.7554C112.443 48.9488 111.769 49.8954 111.017 50.5061C106.905 53.8794 102.402 54.2554 98.4448 53.4634L100.586 51.1154C100.586 51.1154 107.449 52.6594 113.041 47.7554" fill="#FFB1A9"/>
<path d="M80.8005 37.6574C80.8005 37.6574 84.8552 51.4921 77.8458 61.9761C81.1472 63.8481 88.1712 63.7254 94.0992 62.0921C99.4952 60.6041 103.98 57.6694 103.98 57.6694C103.98 57.6694 100.91 51.4694 102.694 45.7934" fill="#FFBEAE"/>
<path d="M75.9362 382.552C75.9362 382.552 87.5616 386.854 97.4509 383.271C97.4509 383.271 118.114 392.023 119.138 393.986C120.16 395.948 76.6549 395.016 75.2896 394.846C73.9256 394.675 73.8242 386.494 75.9362 382.552Z" fill="#173751"/>
<path d="M115.903 2.817C109.356 -1.99367 88.5334 -1.195 84.2641 9.54766C84.2641 9.54766 84.1361 9.53033 83.9428 9.513C80.7121 7.11166 76.4014 8.24366 76.4014 8.24366C77.9868 8.53433 79.3308 9.077 80.4228 9.65166C77.4468 10.137 73.7108 11.789 72.9508 16.981C71.9748 23.633 77.9241 35.101 80.5121 41.9503C80.8908 42.9543 81.7161 43.705 82.7494 43.997C84.9094 44.6077 87.8774 44.937 93.0388 43.1383C94.1601 42.7477 94.9014 41.6663 94.8721 40.4797C94.6894 33.1743 94.7401 24.2743 99.0814 26.725C100.365 27.4517 101.455 31.0583 103.401 31.1743C106.229 31.3303 105.944 26.0277 106.515 22.6637C108.153 13.0063 111.855 20.1837 116.076 16.4877C120.209 12.8717 121.089 6.62767 115.903 2.817Z" fill="#20466B"/>
<path d="M83.8677 10.5626C83.8677 10.5626 81.9584 7.22126 83.8677 1.42526C83.8677 1.42526 84.209 6.47059 86.2544 8.99459" fill="#20466B"/>
<path d="M99.4581 27.0274C99.4581 27.0274 96.3461 23.1154 92.9634 27.1701C91.1288 29.3714 91.8834 35.3261 94.3168 36.4074C96.7488 37.4887 98.9648 36.4261 100.099 34.6421" fill="#FFBEAE"/>
<path d="M113.278 36.2499C113.494 38.9806 112.053 41.3219 110.059 41.4806C108.065 41.6379 106.273 39.5526 106.057 36.8219C105.841 34.0913 107.282 31.7499 109.275 31.5913C111.27 31.4339 113.062 33.5193 113.278 36.2499Z" fill="#FFA3A5"/>
<path d="M121.912 58.3617C121.912 58.3617 111.636 57.363 106.77 67.255C101.905 77.1483 107.737 91.943 121.614 96.2137" stroke="#4086CC" stroke-width="0.487" stroke-miterlimit="10" stroke-linecap="round" stroke-linejoin="round"/>
<path d="M110.061 88.4544C110.061 88.4544 90.6933 137.178 92.964 180.478" stroke="#4086CC" stroke-width="0.487" stroke-miterlimit="10" stroke-linecap="round" stroke-linejoin="round"/>
<path d="M114.853 41.6752C114.853 41.6752 113.397 45.2899 109.347 42.4592C109.347 42.4592 112.562 43.6992 114.853 41.6752Z" fill="#06131E"/>
<path d="M113.998 26.6485C114.167 28.2178 113.682 29.5578 112.914 29.6405C112.146 29.7232 111.386 28.5178 111.216 26.9485C111.047 25.3792 111.532 24.0392 112.3 23.9565C113.068 23.8738 113.828 25.0792 113.998 26.6485Z" fill="white"/>
<path d="M113.945 27.1907C114.069 28.3454 113.713 29.3307 113.148 29.3921C112.583 29.4534 112.023 28.5667 111.899 27.4107C111.775 26.2561 112.132 25.2707 112.696 25.2094C113.261 25.1494 113.821 26.0361 113.945 27.1907Z" fill="#20466B"/>
<path d="M110.88 20.6148C109.911 21.0814 108.393 22.4254 108.285 24.0481C108.177 25.6694 112.104 21.3721 112.195 20.8574C112.285 20.3441 111.636 20.2508 110.88 20.6148Z" fill="#20466B"/>
<path d="M97.464 29.9096C97.6146 30.7229 96.6586 31.6429 97.0413 32.3736C97.424 33.1029 98.032 33.0216 98.1133 33.6296C98.1933 34.2389 97.132 34.5989 95.856 33.3602C94.9373 32.4682 95.044 31.0456 95.3693 30.0896C95.7853 28.8656 97.2266 28.6296 97.464 29.9096Z" fill="#FF9692"/>
</svg>
