<svg width="774" height="296" viewBox="0 0 774 296" fill="none" xmlns="http://www.w3.org/2000/svg">
<rect y="30" width="224" height="236" rx="18" fill="#476589"/>
<path d="M110.24 257H88.2676L45.4941 186.834V257H23.5215V150.359H45.4941L88.3408 220.672V150.359H110.24V257ZM164.146 198.406L186.339 150.359H210.362L175.353 218.328V257H153.014V218.328L118.004 150.359H142.101L164.146 198.406Z" fill="white"/>
<path d="M106.237 112.478C105.407 123.952 101.159 132.985 93.4932 139.577C85.876 146.169 75.8174 149.465 63.3174 149.465C49.6455 149.465 38.8789 144.875 31.0176 135.695C23.2051 126.467 19.2988 113.82 19.2988 97.7559V91.2373C19.2988 80.9834 21.1055 71.9502 24.7188 64.1377C28.332 56.3252 33.4834 50.3438 40.1729 46.1934C46.9111 41.9941 54.7236 39.8945 63.6104 39.8945C75.915 39.8945 85.8271 43.1904 93.3467 49.7822C100.866 56.374 105.212 65.627 106.384 77.541H84.4111C83.874 70.6562 81.9453 65.6758 78.625 62.5996C75.3535 59.4746 70.3486 57.9121 63.6104 57.9121C56.2861 57.9121 50.793 60.5488 47.1309 65.8223C43.5176 71.0469 41.6621 79.1768 41.5645 90.2119V98.2686C41.5645 109.792 43.2979 118.215 46.7646 123.537C50.2803 128.859 55.7979 131.521 63.3174 131.521C70.1045 131.521 75.1582 129.982 78.4785 126.906C81.8477 123.781 83.7764 118.972 84.2646 112.478H106.237ZM201.379 41.3594V111.599C201.379 123.269 197.717 132.497 190.393 139.284C183.117 146.071 173.156 149.465 160.51 149.465C148.059 149.465 138.171 146.169 130.847 139.577C123.522 132.985 119.787 123.928 119.641 112.404V41.3594H141.613V111.745C141.613 118.728 143.273 123.83 146.594 127.053C149.963 130.227 154.602 131.813 160.51 131.813C172.863 131.813 179.138 125.319 179.333 112.331V41.3594H201.379Z" fill="white"/>
<path d="M321.722 37.2383H236.175L235.076 62.2139H237.42C238.592 56.5498 240.203 52.2285 242.254 49.25C244.305 46.2227 247.259 44.0742 251.116 42.8047C255.022 41.5352 260.247 40.7295 266.79 40.3877L271.038 40.168V130.183C271.038 132.575 270.77 134.455 270.232 135.822C269.744 137.141 268.694 138.142 267.083 138.825C265.521 139.509 263.104 140.07 259.832 140.51V143H298.138V140.51C294.866 140.07 292.425 139.509 290.813 138.825C289.202 138.142 288.128 137.141 287.591 135.822C287.103 134.455 286.858 132.575 286.858 130.183V40.168L291.106 40.3877C297.698 40.7295 302.923 41.5352 306.78 42.8047C310.638 44.0742 313.592 46.2227 315.643 49.25C317.742 52.2773 319.354 56.5986 320.477 62.2139H322.82L321.722 37.2383ZM343.255 71.3691L320.11 74.0059V76.2031L324.432 77.5215C326.434 78.1562 327.679 78.8398 328.167 79.5723C328.704 80.2559 328.973 81.5742 328.973 83.5273V133.332C328.973 135.725 328.46 137.385 327.435 138.312C326.458 139.24 324.017 139.973 320.11 140.51V143H353.069V140.51C350.188 140.119 348.064 139.655 346.697 139.118C345.33 138.581 344.427 137.8 343.987 136.774C343.597 135.749 343.401 134.309 343.401 132.453V89.0205C345.257 87.0674 347.942 85.5293 351.458 84.4062C355.022 83.2344 358.636 82.6484 362.298 82.6484C363.763 82.6484 365.154 82.7217 366.473 82.8682C367.791 83.0146 368.792 83.1855 369.476 83.3809C369.866 82.8926 370.208 82.1846 370.501 81.2568C370.794 80.3291 370.94 79.3525 370.94 78.3271C370.94 76.374 370.354 74.6895 369.183 73.2734C368.06 71.8574 366.204 71.1494 363.616 71.1494C360.638 71.1494 357.537 72.4678 354.314 75.1045C351.141 77.7412 347.454 81.6963 343.255 86.9697V71.3691ZM399.358 144.318C404.632 144.318 409.271 143.293 413.274 141.242C417.327 139.143 420.184 136.555 421.844 133.479C422.283 135.725 423.113 137.629 424.334 139.191C425.604 140.754 427.19 141.95 429.095 142.78C430.999 143.562 433.147 143.952 435.54 143.952C437.981 143.952 440.154 143.635 442.059 143C444.012 142.414 445.55 141.73 446.673 140.949V138.679C445.647 139.021 444.573 139.191 443.45 139.191C441.204 139.191 439.349 138.483 437.884 137.067C436.419 135.603 435.687 133.259 435.687 130.036V92.6826C435.687 85.1143 433.196 79.5967 428.216 76.1299C423.284 72.6143 416.814 70.8564 408.807 70.8564C403.533 70.8564 398.797 71.5645 394.598 72.9805C390.447 74.3477 387.151 76.2275 384.71 78.6201C382.317 81.0127 381.121 83.7227 381.121 86.75C381.121 88.8984 381.878 90.7051 383.392 92.1699C384.905 93.5859 386.688 94.2939 388.738 94.2939C390.887 94.2939 392.693 93.5859 394.158 92.1699C395.672 90.7539 396.429 88.9961 396.429 86.8965C396.429 84.748 395.696 82.9658 394.231 81.5498C392.815 80.085 391.131 79.3525 389.178 79.3525C387.371 79.3525 385.76 80.1338 384.344 81.6963C382.928 83.2588 382.195 85.1875 382.146 87.4824H383.831C384.173 84.9434 385.247 82.7461 387.054 80.8906C388.909 79.0352 391.253 77.5947 394.085 76.5693C396.966 75.5439 400.091 75.0312 403.46 75.0312C408.978 75.0312 413.372 76.4717 416.644 79.3525C419.964 82.1846 421.624 87.0918 421.624 94.0742V130.915C420.11 133.308 418.133 135.114 415.691 136.335C413.25 137.507 410.442 138.093 407.269 138.093C403.411 138.093 400.14 136.896 397.454 134.504C394.817 132.062 393.499 128.645 393.499 124.25C393.499 119.855 394.939 116.242 397.82 113.41C400.701 110.578 406.023 108.308 413.787 106.599L426.019 103.889V100.812L406.756 104.987C400.115 106.403 394.744 108.112 390.643 110.114C386.541 112.116 383.538 114.484 381.634 117.219C379.778 119.953 378.851 123.127 378.851 126.74C378.851 132.014 380.804 136.262 384.71 139.484C388.616 142.707 393.499 144.318 399.358 144.318ZM474.065 71.3691L450.921 74.0059V76.2031L455.242 77.5215C457.244 78.1562 458.489 78.8398 458.978 79.5723C459.515 80.2559 459.783 81.5742 459.783 83.5273V133.039C459.783 135.578 459.246 137.312 458.172 138.239C457.146 139.167 454.729 139.924 450.921 140.51V143H482.562V140.51C478.851 139.973 476.531 139.265 475.604 138.386C474.676 137.507 474.212 135.871 474.212 133.479V86.3105C475.774 83.7227 477.947 81.6475 480.73 80.085C483.514 78.4736 486.834 77.668 490.691 77.668C495.916 77.668 499.969 79.1816 502.85 82.209C505.73 85.2363 507.171 89.8262 507.171 95.9785V133.479C507.171 135.871 506.707 137.507 505.779 138.386C504.852 139.265 502.532 139.973 498.821 140.51V143H530.462V140.51C527.874 140.119 525.945 139.68 524.676 139.191C523.406 138.654 522.576 137.922 522.186 136.994C521.795 136.018 521.6 134.699 521.6 133.039V92.9756C521.6 85.5049 519.354 79.9629 514.861 76.3496C510.369 72.6875 504.583 70.8564 497.503 70.8564C492.132 70.8564 487.371 72.0771 483.221 74.5186C479.119 76.9111 476.067 80.0117 474.065 83.8203V71.3691ZM540.203 91.2178C540.203 96.54 541.961 100.861 545.477 104.182C549.041 107.453 553.997 110.114 560.345 112.165L565.911 113.996C570.696 115.51 574.188 117.365 576.385 119.562C578.631 121.76 579.754 124.616 579.754 128.132C579.754 131.696 578.387 134.675 575.652 137.067C572.918 139.46 569.231 140.656 564.593 140.656C561.321 140.656 558.123 139.851 554.998 138.239C551.873 136.579 549.139 134.138 546.795 130.915C544.5 127.692 542.864 123.737 541.888 119.05H539.544L540.35 138.459C542.693 140.119 546.014 141.486 550.311 142.561C554.656 143.635 559.441 144.172 564.666 144.172C569.207 144.172 573.528 143.366 577.63 141.755C581.78 140.095 585.149 137.702 587.737 134.577C590.374 131.452 591.692 127.692 591.692 123.298C591.692 117.634 589.959 113.02 586.492 109.455C583.074 105.891 578.216 103.107 571.917 101.105L566.351 99.3477C561.858 97.8828 558.367 96.1738 555.877 94.2207C553.387 92.2676 552.142 89.582 552.142 86.1641C552.142 82.6973 553.436 79.8652 556.023 77.668C558.66 75.4707 562.298 74.3721 566.937 74.3721C571.624 74.3721 575.701 75.9834 579.168 79.2061C582.635 82.4287 584.905 87.1406 585.979 93.3418H588.323L587.957 75.3242C586.297 74.2012 583.636 73.1758 579.974 72.248C576.312 71.3203 571.941 70.8564 566.863 70.8564C561.834 70.8564 557.293 71.6377 553.24 73.2002C549.236 74.7627 546.062 77.0576 543.719 80.085C541.375 83.1123 540.203 86.8232 540.203 91.2178ZM624.798 132.453V76.2031L643.475 77.0088V72.1016L624.798 72.9072V54.2305C624.798 48.3223 625.652 44.0986 627.361 41.5596C629.07 38.9717 631.487 37.6777 634.612 37.6777C637.151 37.6777 639.251 38.3613 640.911 39.7285C642.571 41.0469 643.499 42.6826 643.694 44.6357H645.965C645.965 42.7803 645.354 41.2422 644.134 40.0215C642.913 38.8008 641.521 38.1904 639.959 38.1904C638.201 38.1904 636.688 38.8008 635.418 40.0215C634.148 41.2422 633.514 42.7803 633.514 44.6357C633.514 46.4912 634.148 48.0537 635.418 49.3232C636.688 50.5928 638.25 51.2275 640.105 51.2275C641.912 51.2275 643.45 50.5928 644.72 49.3232C645.989 48.0537 646.624 46.4912 646.624 44.6357C646.624 41.6572 645.403 39.1426 642.962 37.0918C640.569 35.041 636.98 34.0156 632.195 34.0156C628.045 34.0156 624.31 34.9434 620.989 36.7988C617.718 38.6543 615.13 41.4375 613.226 45.1484C611.321 48.8105 610.369 53.3516 610.369 58.7715V72.1748L601.507 75.251V77.0088H610.369V133.332C610.369 135.725 609.856 137.385 608.831 138.312C607.854 139.24 605.413 139.973 601.507 140.51V143H634.539V140.51C631.658 140.119 629.51 139.655 628.094 139.118C626.727 138.581 625.823 137.8 625.384 136.774C624.993 135.749 624.798 134.309 624.798 132.453ZM648.089 107.551C648.089 114.875 649.578 121.296 652.557 126.813C655.584 132.331 659.734 136.628 665.008 139.704C670.281 142.78 676.263 144.318 682.952 144.318C688.958 144.318 694.231 143.244 698.772 141.096C703.362 138.947 706.78 136.164 709.026 132.746V130.256C707.024 132.355 704.461 134.089 701.336 135.456C698.26 136.823 694.646 137.507 690.496 137.507C684.93 137.507 680.071 136.018 675.921 133.039C671.771 130.061 668.523 125.935 666.18 120.661C663.885 115.339 662.737 109.26 662.737 102.424C662.737 93.4395 664.373 86.5303 667.645 81.6963C670.965 76.8135 675.506 74.3721 681.268 74.3721C686.395 74.3721 690.203 76.5693 692.693 80.9639C695.232 85.3584 696.502 90.8516 696.502 97.4434C696.502 98.2734 696.478 99.0547 696.429 99.7871C696.38 100.471 696.331 101.154 696.282 101.838L697.527 100.666L657.537 101.032V103.889H710.052C710.149 103.4 710.223 102.814 710.271 102.131C710.32 101.398 710.345 100.69 710.345 100.007C710.345 94.2939 709.197 89.2402 706.902 84.8457C704.607 80.4512 701.287 77.0332 696.941 74.5918C692.645 72.1016 687.444 70.8564 681.341 70.8564C674.554 70.8564 668.67 72.4434 663.689 75.6172C658.709 78.791 654.852 83.1367 652.117 88.6543C649.432 94.1719 648.089 100.471 648.089 107.551ZM743.011 71.3691L719.866 74.0059V76.2031L724.188 77.5215C726.189 78.1562 727.435 78.8398 727.923 79.5723C728.46 80.2559 728.729 81.5742 728.729 83.5273V133.332C728.729 135.725 728.216 137.385 727.19 138.312C726.214 139.24 723.772 139.973 719.866 140.51V143H752.825V140.51C749.944 140.119 747.82 139.655 746.453 139.118C745.086 138.581 744.183 137.8 743.743 136.774C743.353 135.749 743.157 134.309 743.157 132.453V89.0205C745.013 87.0674 747.698 85.5293 751.214 84.4062C754.778 83.2344 758.392 82.6484 762.054 82.6484C763.519 82.6484 764.91 82.7217 766.229 82.8682C767.547 83.0146 768.548 83.1855 769.231 83.3809C769.622 82.8926 769.964 82.1846 770.257 81.2568C770.55 80.3291 770.696 79.3525 770.696 78.3271C770.696 76.374 770.11 74.6895 768.938 73.2734C767.815 71.8574 765.96 71.1494 763.372 71.1494C760.394 71.1494 757.293 72.4678 754.07 75.1045C750.896 77.7412 747.21 81.6963 743.011 86.9697V71.3691Z" fill="black"/>
<path d="M316.668 184.487C316.668 174.722 312.786 167.251 305.022 162.075C297.308 156.851 286.395 154.238 272.283 154.238H236.102V156.729C239.129 157.168 241.375 157.705 242.84 158.34C244.305 158.926 245.281 159.829 245.77 161.05C246.258 162.222 246.502 163.882 246.502 166.03V248.208C246.502 250.356 246.258 252.041 245.77 253.262C245.281 254.434 244.305 255.337 242.84 255.972C241.375 256.558 239.129 257.07 236.102 257.51V260H273.602V257.51C270.33 257.07 267.889 256.509 266.277 255.825C264.666 255.142 263.592 254.141 263.055 252.822C262.566 251.455 262.322 249.575 262.322 247.183V216.714H272.283C280.486 216.714 287.933 215.542 294.622 213.198C301.36 210.854 306.707 207.29 310.662 202.505C314.666 197.72 316.668 191.714 316.668 184.487ZM299.676 185.366C299.676 193.472 297.21 200.112 292.278 205.288C287.396 210.415 279.705 213.174 269.207 213.564L262.322 213.784V157.168L269.207 157.388C279.754 157.778 287.469 160.562 292.352 165.737C297.234 170.864 299.676 177.407 299.676 185.366ZM361.565 261.318C368.353 261.318 374.505 259.756 380.022 256.631C385.54 253.506 389.935 249.16 393.206 243.594C396.478 238.027 398.113 231.631 398.113 224.404C398.113 217.031 396.502 210.61 393.279 205.142C390.057 199.673 385.711 195.425 380.242 192.397C374.822 189.37 368.768 187.856 362.078 187.856C355.291 187.856 349.114 189.419 343.548 192.544C338.03 195.669 333.636 199.99 330.364 205.508C327.142 211.025 325.53 217.422 325.53 224.697C325.53 232.07 327.142 238.516 330.364 244.033C333.587 249.502 337.908 253.75 343.328 256.777C348.797 259.805 354.876 261.318 361.565 261.318ZM362.078 257.803C357.928 257.803 354.29 256.387 351.165 253.555C348.089 250.674 345.672 246.694 343.914 241.616C342.205 236.538 341.351 230.63 341.351 223.892C341.351 214.077 343.133 206.216 346.697 200.308C350.262 194.351 355.218 191.372 361.565 191.372C365.667 191.372 369.256 192.788 372.332 195.62C375.457 198.452 377.874 202.407 379.583 207.485C381.341 212.563 382.22 218.472 382.22 225.21C382.22 235.073 380.438 242.983 376.873 248.94C373.309 254.849 368.377 257.803 362.078 257.803ZM431.146 188.369L408.001 191.006V193.203L412.322 194.521C414.324 195.156 415.569 195.84 416.058 196.572C416.595 197.256 416.863 198.574 416.863 200.527V250.332C416.863 252.725 416.351 254.385 415.325 255.312C414.349 256.24 411.907 256.973 408.001 257.51V260H440.96V257.51C438.079 257.119 435.955 256.655 434.588 256.118C433.221 255.581 432.317 254.8 431.878 253.774C431.487 252.749 431.292 251.309 431.292 249.453V206.021C433.147 204.067 435.833 202.529 439.349 201.406C442.913 200.234 446.526 199.648 450.188 199.648C451.653 199.648 453.045 199.722 454.363 199.868C455.682 200.015 456.683 200.186 457.366 200.381C457.757 199.893 458.099 199.185 458.392 198.257C458.685 197.329 458.831 196.353 458.831 195.327C458.831 193.374 458.245 191.689 457.073 190.273C455.95 188.857 454.095 188.149 451.507 188.149C448.528 188.149 445.428 189.468 442.205 192.104C439.031 194.741 435.345 198.696 431.146 203.97V188.369ZM473.187 241.177C473.187 246.06 473.992 249.99 475.604 252.969C477.264 255.898 479.461 258.022 482.195 259.341C484.93 260.659 487.957 261.318 491.277 261.318C494.988 261.318 498.382 260.586 501.458 259.121C504.534 257.607 506.707 255.972 507.977 254.214V251.65C506.902 252.725 505.535 253.579 503.875 254.214C502.215 254.8 500.457 255.093 498.602 255.093C495.477 255.093 492.864 254.043 490.765 251.943C488.665 249.844 487.615 246.182 487.615 240.957V193.203L506.878 194.009V189.102L487.615 189.98V174.893H486.37L464.104 192.251V194.009H473.187V241.177ZM535.296 261.318C540.569 261.318 545.208 260.293 549.212 258.242C553.265 256.143 556.121 253.555 557.781 250.479C558.221 252.725 559.051 254.629 560.271 256.191C561.541 257.754 563.128 258.95 565.032 259.78C566.937 260.562 569.085 260.952 571.478 260.952C573.919 260.952 576.092 260.635 577.996 260C579.949 259.414 581.487 258.73 582.61 257.949V255.679C581.585 256.021 580.511 256.191 579.388 256.191C577.142 256.191 575.286 255.483 573.821 254.067C572.356 252.603 571.624 250.259 571.624 247.036V209.683C571.624 202.114 569.134 196.597 564.153 193.13C559.222 189.614 552.752 187.856 544.744 187.856C539.471 187.856 534.734 188.564 530.535 189.98C526.385 191.348 523.089 193.228 520.647 195.62C518.255 198.013 517.059 200.723 517.059 203.75C517.059 205.898 517.815 207.705 519.329 209.17C520.843 210.586 522.625 211.294 524.676 211.294C526.824 211.294 528.631 210.586 530.096 209.17C531.609 207.754 532.366 205.996 532.366 203.896C532.366 201.748 531.634 199.966 530.169 198.55C528.753 197.085 527.068 196.353 525.115 196.353C523.309 196.353 521.697 197.134 520.281 198.696C518.865 200.259 518.133 202.188 518.084 204.482H519.769C520.11 201.943 521.185 199.746 522.991 197.891C524.847 196.035 527.19 194.595 530.022 193.569C532.903 192.544 536.028 192.031 539.397 192.031C544.915 192.031 549.31 193.472 552.581 196.353C555.901 199.185 557.562 204.092 557.562 211.074V247.915C556.048 250.308 554.07 252.114 551.629 253.335C549.188 254.507 546.38 255.093 543.206 255.093C539.349 255.093 536.077 253.896 533.392 251.504C530.755 249.062 529.437 245.645 529.437 241.25C529.437 236.855 530.877 233.242 533.758 230.41C536.639 227.578 541.961 225.308 549.725 223.599L561.956 220.889V217.812L542.693 221.987C536.053 223.403 530.682 225.112 526.58 227.114C522.479 229.116 519.476 231.484 517.571 234.219C515.716 236.953 514.788 240.127 514.788 243.74C514.788 249.014 516.741 253.262 520.647 256.484C524.554 259.707 529.437 261.318 535.296 261.318ZM610.149 151.602L586.858 154.238V156.436L591.18 157.754C593.182 158.389 594.427 159.072 594.915 159.805C595.452 160.488 595.721 161.807 595.721 163.76V250.039C595.721 252.578 595.184 254.312 594.109 255.239C593.084 256.167 590.667 256.924 586.858 257.51V260H619.012V257.51C615.203 256.924 612.762 256.167 611.688 255.239C610.662 254.312 610.149 252.578 610.149 250.039V151.602ZM639.446 261.099C641.106 261.099 642.596 260.708 643.914 259.927C645.281 259.097 646.355 257.998 647.137 256.631C647.967 255.264 648.382 253.75 648.382 252.09C648.382 250.43 647.967 248.94 647.137 247.622C646.355 246.255 645.281 245.181 643.914 244.399C642.596 243.569 641.106 243.154 639.446 243.154C637.835 243.154 636.346 243.569 634.979 244.399C633.611 245.181 632.513 246.255 631.683 247.622C630.901 248.94 630.511 250.43 630.511 252.09C630.511 253.75 630.926 255.264 631.756 256.631C632.586 257.998 633.66 259.097 634.979 259.927C636.346 260.708 637.835 261.099 639.446 261.099Z" fill="black"/>
</svg>
