<svg xmlns="http://www.w3.org/2000/svg" viewBox="0 0 1053.1 1031.6"><title>Asset 1</title><g id="Layer_2" data-name="Layer 2"><g id="Layer_7" data-name="Layer 7"><polygon points="404.48 522.87 404.48 795.54 161.31 522.87 35.65 522.87 35.65 522.87 35.65 1031.6 175.55 1031.6 175.55 758.93 415.33 1031.6 544.38 1031.6 544.38 522.87 404.48 522.87"/><path d="M1053,309.23V203.69h0V25.62l-136.85,0h-3V309.23a94.37,94.37,0,0,1-5.86,34c-5,13.07-13.2,24.43-24.74,34.3C861,395.94,829.78,407,798.85,407v0h-.2v0C767.7,407,736.44,395.94,715,377.54c-11.54-9.87-19.75-21.23-24.74-34.3a94.37,94.37,0,0,1-5.86-34V25.6h-3.05l-136.85,0V203.68h0V343.24h0c0,112.48,121.46,201.86,247.8,203.65,1.31,0,2.62,0,3.93,0h5.1c1.31,0,2.62,0,3.93,0,126.34-1.79,247.8-88.6,247.8-203.65h0Z"/><path d="M392,343.24c-22.58,37.67-62.87,62.93-109,63.57-.6,0-1.19,0-1.79,0-71.77,0-129.94-59.71-130-133.37s58.19-133.37,130-133.37c.6,0,1.19,0,1.79,0,46.1.64,86.39,25.9,109,63.56H544.44C544.44,88.93,423.58,2.28,297.58.07l-.94,0c-1.31,0-2.61,0-3.93,0l-1.5,0h-1.14l-1,0-1.5,0C286.3,0,285,0,283.7.05H273.44A273.36,273.36,0,0,0,0,273.44H0v.05H0A272.15,272.15,0,0,0,38.15,412.81C85.8,493.08,173.33,546.89,273.44,546.89H283.7c1.3,0,2.6,0,3.91,0h5.1c1.32,0,2.62,0,3.93,0l.94,0c126-2.2,246.86-88.85,246.86-203.62Z"/><polygon points="913.2 522.87 798.74 756.27 684.28 522.87 544.38 522.87 728.79 898.92 728.79 1031.6 868.69 1031.6 868.69 898.92 1053.1 522.87 913.2 522.87"/></g></g></svg>